<svg width="157" height="157" viewBox="0 0 157 157" fill="none" xmlns="http://www.w3.org/2000/svg">
<g clip-path="url(#clip0_1_834)">
<mask id="mask0_1_834" style="mask-type:luminance" maskUnits="userSpaceOnUse" x="0" y="0" width="157" height="157">
<path d="M157 0H0V157H157V0Z" fill="white"/>
</mask>
<g mask="url(#mask0_1_834)">
<path fill-rule="evenodd" clip-rule="evenodd" d="M78.5 26.4112C72.8274 26.4112 68.229 31.0097 68.229 36.6823H41.8177C41.8177 16.4232 58.241 0 78.5 0C98.7593 0 115.182 16.4232 115.182 36.6823C115.182 56.9413 98.7593 73.3645 78.5 73.3645V46.9533C84.1724 46.9533 88.7709 42.3548 88.7709 36.6823C88.7709 31.0097 84.1724 26.4112 78.5 26.4112ZM130.589 78.5C130.589 72.8274 125.99 68.229 120.318 68.229V41.8177C140.577 41.8177 157 58.241 157 78.5C157 98.7593 140.577 115.182 120.318 115.182C100.058 115.182 83.6355 98.7593 83.6355 78.5H110.047C110.047 84.1724 114.645 88.7709 120.318 88.7709C125.99 88.7709 130.589 84.1724 130.589 78.5ZM36.6823 88.7709C31.0097 88.7709 26.4112 84.1724 26.4112 78.5C26.4112 72.8274 31.0097 68.229 36.6823 68.229C42.3548 68.229 46.9533 72.8274 46.9533 78.5H73.3645C73.3645 58.241 56.9413 41.8177 36.6823 41.8177C16.4232 41.8177 0 58.241 0 78.5C0 98.7593 16.4232 115.182 36.6823 115.182V88.7709ZM78.5 130.589C84.1724 130.589 88.7709 125.99 88.7709 120.318H115.182C115.182 140.577 98.7593 157 78.5 157C58.241 157 41.8177 140.577 41.8177 120.318C41.8177 100.058 58.241 83.6355 78.5 83.6355V110.047C72.8274 110.047 68.229 114.645 68.229 120.318C68.229 125.99 72.8274 130.589 78.5 130.589Z" fill="url(#paint0_linear_1_834)"/>
</g>
</g>
<defs>
<linearGradient id="paint0_linear_1_834" x1="78.5" y1="0" x2="78.5" y2="157" gradientUnits="userSpaceOnUse">
<stop stop-color="#B8DBFC"/>
<stop offset="1" stop-color="#F8FBFE"/>
</linearGradient>
<clipPath id="clip0_1_834">
<rect width="157" height="157" fill="white"/>
</clipPath>
</defs>
</svg>
