<svg width="429" height="228" viewBox="0 0 429 228" fill="none" xmlns="http://www.w3.org/2000/svg">
<rect x="0.850098" y="162" width="428" height="66" rx="6.5" fill="#7AA86D"/>
<path d="M191.852 189.588V186.545H206.188V189.588H200.844V204H197.196V189.588H191.852ZM223.152 192.656H219.419C219.351 192.173 219.212 191.744 219.001 191.369C218.791 190.989 218.521 190.665 218.192 190.398C217.862 190.131 217.482 189.926 217.05 189.784C216.624 189.642 216.161 189.571 215.661 189.571C214.757 189.571 213.97 189.795 213.3 190.244C212.629 190.687 212.109 191.335 211.74 192.188C211.371 193.034 211.186 194.062 211.186 195.273C211.186 196.517 211.371 197.562 211.74 198.409C212.115 199.256 212.638 199.895 213.308 200.327C213.979 200.759 214.754 200.974 215.635 200.974C216.129 200.974 216.587 200.909 217.007 200.778C217.433 200.648 217.811 200.457 218.141 200.207C218.47 199.952 218.743 199.642 218.959 199.278C219.18 198.915 219.334 198.5 219.419 198.034L223.152 198.051C223.055 198.852 222.814 199.625 222.428 200.369C222.047 201.108 221.533 201.77 220.885 202.355C220.243 202.935 219.476 203.395 218.584 203.736C217.697 204.071 216.695 204.239 215.575 204.239C214.018 204.239 212.626 203.886 211.399 203.182C210.178 202.477 209.212 201.457 208.501 200.122C207.797 198.787 207.445 197.17 207.445 195.273C207.445 193.369 207.803 191.75 208.518 190.415C209.234 189.08 210.206 188.062 211.433 187.364C212.661 186.659 214.041 186.307 215.575 186.307C216.587 186.307 217.524 186.449 218.388 186.733C219.257 187.017 220.027 187.432 220.697 187.977C221.368 188.517 221.913 189.179 222.334 189.963C222.76 190.747 223.033 191.645 223.152 192.656ZM225.798 204V186.545H232.685C234.009 186.545 235.136 186.798 236.068 187.304C237 187.804 237.71 188.5 238.199 189.392C238.693 190.278 238.94 191.301 238.94 192.46C238.94 193.619 238.69 194.642 238.19 195.528C237.69 196.415 236.966 197.105 236.017 197.599C235.074 198.094 233.932 198.341 232.591 198.341H228.202V195.384H231.994C232.705 195.384 233.29 195.261 233.75 195.017C234.216 194.767 234.563 194.423 234.79 193.986C235.023 193.543 235.139 193.034 235.139 192.46C235.139 191.881 235.023 191.375 234.79 190.943C234.563 190.506 234.216 190.168 233.75 189.929C233.284 189.685 232.693 189.562 231.977 189.562H229.489V204H225.798Z" fill="white"/>
<rect x="0.850098" y="80" width="428" height="66" rx="6.5" fill="#A86D6D"/>
<rect x="0.850098" width="203" height="66" rx="6.5" fill="#6D75A8"/>
<rect x="224.85" width="204" height="66" rx="6.5" fill="#836DA8"/>
<path d="M116.048 111.565C115.98 110.878 115.688 110.344 115.17 109.963C114.653 109.582 113.952 109.392 113.065 109.392C112.463 109.392 111.955 109.477 111.54 109.648C111.125 109.812 110.807 110.043 110.585 110.338C110.369 110.634 110.261 110.969 110.261 111.344C110.25 111.656 110.315 111.929 110.457 112.162C110.605 112.395 110.807 112.597 111.062 112.767C111.318 112.932 111.614 113.077 111.949 113.202C112.284 113.321 112.642 113.423 113.023 113.509L114.591 113.884C115.352 114.054 116.051 114.281 116.688 114.565C117.324 114.849 117.875 115.199 118.341 115.614C118.807 116.028 119.168 116.517 119.423 117.08C119.685 117.642 119.818 118.287 119.824 119.014C119.818 120.082 119.545 121.009 119.006 121.793C118.472 122.571 117.699 123.176 116.688 123.608C115.682 124.034 114.469 124.247 113.048 124.247C111.639 124.247 110.412 124.031 109.366 123.599C108.327 123.168 107.514 122.528 106.929 121.682C106.349 120.83 106.045 119.776 106.017 118.52H109.588C109.628 119.105 109.795 119.594 110.091 119.986C110.392 120.372 110.793 120.665 111.293 120.864C111.798 121.057 112.369 121.153 113.006 121.153C113.631 121.153 114.173 121.062 114.634 120.881C115.099 120.699 115.46 120.446 115.716 120.122C115.972 119.798 116.099 119.426 116.099 119.006C116.099 118.614 115.983 118.284 115.75 118.017C115.523 117.75 115.188 117.523 114.744 117.335C114.307 117.148 113.77 116.977 113.134 116.824L111.233 116.347C109.761 115.989 108.599 115.429 107.747 114.668C106.895 113.906 106.472 112.881 106.477 111.591C106.472 110.534 106.753 109.611 107.321 108.821C107.895 108.031 108.682 107.415 109.682 106.972C110.682 106.528 111.818 106.307 113.091 106.307C114.386 106.307 115.517 106.528 116.483 106.972C117.455 107.415 118.21 108.031 118.75 108.821C119.29 109.611 119.568 110.526 119.585 111.565H116.048ZM128.204 124.256C126.857 124.256 125.698 123.983 124.727 123.438C123.761 122.886 123.016 122.108 122.494 121.102C121.971 120.091 121.71 118.895 121.71 117.514C121.71 116.168 121.971 114.986 122.494 113.969C123.016 112.952 123.752 112.159 124.701 111.591C125.656 111.023 126.775 110.739 128.059 110.739C128.923 110.739 129.727 110.878 130.471 111.156C131.221 111.429 131.874 111.841 132.431 112.392C132.994 112.943 133.431 113.636 133.744 114.472C134.056 115.301 134.212 116.273 134.212 117.386V118.384H123.158V116.134H130.795C130.795 115.611 130.681 115.148 130.454 114.744C130.227 114.341 129.911 114.026 129.508 113.798C129.11 113.565 128.647 113.449 128.119 113.449C127.567 113.449 127.079 113.577 126.653 113.832C126.232 114.082 125.903 114.42 125.664 114.847C125.425 115.267 125.303 115.736 125.298 116.253V118.392C125.298 119.04 125.417 119.599 125.656 120.071C125.9 120.543 126.244 120.906 126.687 121.162C127.13 121.418 127.656 121.545 128.263 121.545C128.667 121.545 129.036 121.489 129.371 121.375C129.707 121.261 129.994 121.091 130.232 120.864C130.471 120.636 130.653 120.358 130.778 120.028L134.136 120.25C133.965 121.057 133.616 121.761 133.087 122.364C132.565 122.96 131.888 123.426 131.059 123.761C130.235 124.091 129.283 124.256 128.204 124.256ZM142.496 124.256C141.156 124.256 140.002 123.972 139.036 123.403C138.076 122.83 137.337 122.034 136.82 121.017C136.309 120 136.053 118.83 136.053 117.506C136.053 116.165 136.312 114.989 136.829 113.977C137.352 112.96 138.093 112.168 139.053 111.599C140.013 111.026 141.156 110.739 142.479 110.739C143.621 110.739 144.621 110.946 145.479 111.361C146.337 111.776 147.016 112.358 147.516 113.108C148.016 113.858 148.292 114.739 148.343 115.75H144.917C144.82 115.097 144.565 114.571 144.15 114.173C143.741 113.77 143.204 113.568 142.539 113.568C141.977 113.568 141.485 113.722 141.065 114.028C140.65 114.33 140.326 114.77 140.093 115.349C139.86 115.929 139.744 116.631 139.744 117.455C139.744 118.29 139.857 119 140.085 119.585C140.317 120.17 140.644 120.616 141.065 120.923C141.485 121.23 141.977 121.384 142.539 121.384C142.954 121.384 143.326 121.298 143.656 121.128C143.991 120.957 144.266 120.71 144.482 120.386C144.704 120.057 144.849 119.662 144.917 119.202H148.343C148.286 120.202 148.013 121.082 147.525 121.844C147.042 122.599 146.374 123.19 145.522 123.616C144.67 124.043 143.661 124.256 142.496 124.256ZM159.062 118.426V110.909H162.693V124H159.207V121.622H159.071C158.776 122.389 158.284 123.006 157.597 123.472C156.915 123.937 156.082 124.17 155.099 124.17C154.224 124.17 153.455 123.972 152.79 123.574C152.125 123.176 151.605 122.611 151.23 121.878C150.861 121.145 150.673 120.267 150.668 119.244V110.909H154.298V118.597C154.304 119.369 154.511 119.98 154.92 120.429C155.33 120.878 155.878 121.102 156.565 121.102C157.003 121.102 157.412 121.003 157.793 120.804C158.173 120.599 158.48 120.298 158.713 119.901C158.952 119.503 159.068 119.011 159.062 118.426ZM165.597 124V110.909H169.117V113.193H169.254C169.492 112.381 169.893 111.767 170.455 111.352C171.018 110.932 171.665 110.722 172.398 110.722C172.58 110.722 172.776 110.733 172.987 110.756C173.197 110.778 173.381 110.81 173.54 110.849V114.071C173.37 114.02 173.134 113.974 172.833 113.935C172.532 113.895 172.256 113.875 172.006 113.875C171.472 113.875 170.995 113.991 170.575 114.224C170.16 114.452 169.83 114.77 169.586 115.179C169.347 115.588 169.228 116.06 169.228 116.594V124H165.597ZM180.774 124.256C179.428 124.256 178.268 123.983 177.297 123.438C176.331 122.886 175.587 122.108 175.064 121.102C174.541 120.091 174.28 118.895 174.28 117.514C174.28 116.168 174.541 114.986 175.064 113.969C175.587 112.952 176.322 112.159 177.271 111.591C178.226 111.023 179.345 110.739 180.629 110.739C181.493 110.739 182.297 110.878 183.041 111.156C183.791 111.429 184.445 111.841 185.001 112.392C185.564 112.943 186.001 113.636 186.314 114.472C186.626 115.301 186.783 116.273 186.783 117.386V118.384H175.729V116.134H183.365C183.365 115.611 183.251 115.148 183.024 114.744C182.797 114.341 182.482 114.026 182.078 113.798C181.68 113.565 181.217 113.449 180.689 113.449C180.138 113.449 179.649 113.577 179.223 113.832C178.803 114.082 178.473 114.42 178.234 114.847C177.996 115.267 177.874 115.736 177.868 116.253V118.392C177.868 119.04 177.987 119.599 178.226 120.071C178.47 120.543 178.814 120.906 179.257 121.162C179.7 121.418 180.226 121.545 180.834 121.545C181.237 121.545 181.607 121.489 181.942 121.375C182.277 121.261 182.564 121.091 182.803 120.864C183.041 120.636 183.223 120.358 183.348 120.028L186.706 120.25C186.536 121.057 186.186 121.761 185.658 122.364C185.135 122.96 184.459 123.426 183.629 123.761C182.805 124.091 181.854 124.256 180.774 124.256ZM204.244 111.565C204.175 110.878 203.883 110.344 203.366 109.963C202.849 109.582 202.147 109.392 201.261 109.392C200.658 109.392 200.15 109.477 199.735 109.648C199.32 109.812 199.002 110.043 198.781 110.338C198.565 110.634 198.457 110.969 198.457 111.344C198.445 111.656 198.511 111.929 198.653 112.162C198.8 112.395 199.002 112.597 199.258 112.767C199.513 112.932 199.809 113.077 200.144 113.202C200.479 113.321 200.837 113.423 201.218 113.509L202.786 113.884C203.548 114.054 204.246 114.281 204.883 114.565C205.519 114.849 206.07 115.199 206.536 115.614C207.002 116.028 207.363 116.517 207.619 117.08C207.88 117.642 208.013 118.287 208.019 119.014C208.013 120.082 207.741 121.009 207.201 121.793C206.667 122.571 205.894 123.176 204.883 123.608C203.877 124.034 202.664 124.247 201.244 124.247C199.835 124.247 198.607 124.031 197.562 123.599C196.522 123.168 195.71 122.528 195.124 121.682C194.545 120.83 194.241 119.776 194.212 118.52H197.783C197.823 119.105 197.991 119.594 198.286 119.986C198.587 120.372 198.988 120.665 199.488 120.864C199.994 121.057 200.565 121.153 201.201 121.153C201.826 121.153 202.369 121.062 202.829 120.881C203.295 120.699 203.656 120.446 203.911 120.122C204.167 119.798 204.295 119.426 204.295 119.006C204.295 118.614 204.178 118.284 203.945 118.017C203.718 117.75 203.383 117.523 202.94 117.335C202.502 117.148 201.965 116.977 201.329 116.824L199.428 116.347C197.957 115.989 196.795 115.429 195.942 114.668C195.09 113.906 194.667 112.881 194.673 111.591C194.667 110.534 194.948 109.611 195.516 108.821C196.09 108.031 196.877 107.415 197.877 106.972C198.877 106.528 200.013 106.307 201.286 106.307C202.582 106.307 203.712 106.528 204.678 106.972C205.65 107.415 206.406 108.031 206.945 108.821C207.485 109.611 207.763 110.526 207.781 111.565H204.244ZM214.064 116.432V124H210.433V106.545H213.962V113.219H214.115C214.411 112.446 214.888 111.841 215.547 111.403C216.206 110.96 217.033 110.739 218.027 110.739C218.936 110.739 219.729 110.938 220.405 111.335C221.087 111.727 221.615 112.293 221.99 113.031C222.371 113.764 222.558 114.642 222.553 115.665V124H218.922V116.312C218.928 115.506 218.723 114.878 218.308 114.429C217.899 113.98 217.325 113.756 216.587 113.756C216.092 113.756 215.655 113.861 215.274 114.071C214.899 114.281 214.604 114.588 214.388 114.991C214.178 115.389 214.07 115.869 214.064 116.432ZM231.376 124.256C230.029 124.256 228.87 123.983 227.898 123.438C226.933 122.886 226.188 122.108 225.665 121.102C225.143 120.091 224.881 118.895 224.881 117.514C224.881 116.168 225.143 114.986 225.665 113.969C226.188 112.952 226.924 112.159 227.873 111.591C228.827 111.023 229.947 110.739 231.231 110.739C232.094 110.739 232.898 110.878 233.643 111.156C234.393 111.429 235.046 111.841 235.603 112.392C236.165 112.943 236.603 113.636 236.915 114.472C237.228 115.301 237.384 116.273 237.384 117.386V118.384H226.33V116.134H233.967C233.967 115.611 233.853 115.148 233.626 114.744C233.398 114.341 233.083 114.026 232.68 113.798C232.282 113.565 231.819 113.449 231.29 113.449C230.739 113.449 230.251 113.577 229.825 113.832C229.404 114.082 229.075 114.42 228.836 114.847C228.597 115.267 228.475 115.736 228.469 116.253V118.392C228.469 119.04 228.589 119.599 228.827 120.071C229.072 120.543 229.415 120.906 229.859 121.162C230.302 121.418 230.827 121.545 231.435 121.545C231.839 121.545 232.208 121.489 232.543 121.375C232.879 121.261 233.165 121.091 233.404 120.864C233.643 120.636 233.825 120.358 233.95 120.028L237.308 120.25C237.137 121.057 236.788 121.761 236.259 122.364C235.737 122.96 235.06 123.426 234.231 123.761C233.407 124.091 232.455 124.256 231.376 124.256ZM243.384 106.545V124H239.754V106.545H243.384ZM249.923 106.545V124H246.293V106.545H249.923ZM259.188 115.273C259.188 113.159 259.469 111.213 260.031 109.435C260.599 107.656 261.466 106.009 262.631 104.491H266.099C265.656 105.054 265.244 105.741 264.864 106.554C264.483 107.361 264.151 108.247 263.866 109.213C263.582 110.179 263.361 111.179 263.202 112.213C263.043 113.241 262.963 114.261 262.963 115.273C262.963 116.619 263.099 117.98 263.372 119.355C263.651 120.724 264.026 121.997 264.497 123.173C264.974 124.349 265.509 125.312 266.099 126.062H262.631C261.466 124.545 260.599 122.898 260.031 121.119C259.469 119.341 259.188 117.392 259.188 115.273ZM277.744 111.565C277.675 110.878 277.383 110.344 276.866 109.963C276.349 109.582 275.647 109.392 274.761 109.392C274.158 109.392 273.65 109.477 273.235 109.648C272.82 109.812 272.502 110.043 272.281 110.338C272.065 110.634 271.957 110.969 271.957 111.344C271.945 111.656 272.011 111.929 272.153 112.162C272.3 112.395 272.502 112.597 272.758 112.767C273.013 112.932 273.309 113.077 273.644 113.202C273.979 113.321 274.337 113.423 274.718 113.509L276.286 113.884C277.048 114.054 277.746 114.281 278.383 114.565C279.019 114.849 279.57 115.199 280.036 115.614C280.502 116.028 280.863 116.517 281.119 117.08C281.38 117.642 281.513 118.287 281.519 119.014C281.513 120.082 281.241 121.009 280.701 121.793C280.167 122.571 279.394 123.176 278.383 123.608C277.377 124.034 276.164 124.247 274.744 124.247C273.335 124.247 272.107 124.031 271.062 123.599C270.022 123.168 269.21 122.528 268.624 121.682C268.045 120.83 267.741 119.776 267.712 118.52H271.283C271.323 119.105 271.491 119.594 271.786 119.986C272.087 120.372 272.488 120.665 272.988 120.864C273.494 121.057 274.065 121.153 274.701 121.153C275.326 121.153 275.869 121.062 276.329 120.881C276.795 120.699 277.156 120.446 277.411 120.122C277.667 119.798 277.795 119.426 277.795 119.006C277.795 118.614 277.678 118.284 277.445 118.017C277.218 117.75 276.883 117.523 276.44 117.335C276.002 117.148 275.465 116.977 274.829 116.824L272.928 116.347C271.457 115.989 270.295 115.429 269.442 114.668C268.59 113.906 268.167 112.881 268.173 111.591C268.167 110.534 268.448 109.611 269.016 108.821C269.59 108.031 270.377 107.415 271.377 106.972C272.377 106.528 273.513 106.307 274.786 106.307C276.082 106.307 277.212 106.528 278.178 106.972C279.15 107.415 279.906 108.031 280.445 108.821C280.985 109.611 281.263 110.526 281.281 111.565H277.744ZM293.47 111.565C293.402 110.878 293.109 110.344 292.592 109.963C292.075 109.582 291.374 109.392 290.487 109.392C289.885 109.392 289.376 109.477 288.962 109.648C288.547 109.812 288.229 110.043 288.007 110.338C287.791 110.634 287.683 110.969 287.683 111.344C287.672 111.656 287.737 111.929 287.879 112.162C288.027 112.395 288.229 112.597 288.484 112.767C288.74 112.932 289.036 113.077 289.371 113.202C289.706 113.321 290.064 113.423 290.445 113.509L292.013 113.884C292.774 114.054 293.473 114.281 294.109 114.565C294.746 114.849 295.297 115.199 295.763 115.614C296.229 116.028 296.589 116.517 296.845 117.08C297.107 117.642 297.24 118.287 297.246 119.014C297.24 120.082 296.967 121.009 296.428 121.793C295.893 122.571 295.121 123.176 294.109 123.608C293.104 124.034 291.891 124.247 290.47 124.247C289.061 124.247 287.834 124.031 286.788 123.599C285.749 123.168 284.936 122.528 284.351 121.682C283.771 120.83 283.467 119.776 283.439 118.52H287.01C287.05 119.105 287.217 119.594 287.513 119.986C287.814 120.372 288.214 120.665 288.714 120.864C289.22 121.057 289.791 121.153 290.428 121.153C291.053 121.153 291.595 121.062 292.055 120.881C292.521 120.699 292.882 120.446 293.138 120.122C293.393 119.798 293.521 119.426 293.521 119.006C293.521 118.614 293.405 118.284 293.172 118.017C292.945 117.75 292.609 117.523 292.166 117.335C291.729 117.148 291.192 116.977 290.555 116.824L288.655 116.347C287.183 115.989 286.021 115.429 285.169 114.668C284.317 113.906 283.893 112.881 283.899 111.591C283.893 110.534 284.175 109.611 284.743 108.821C285.317 108.031 286.104 107.415 287.104 106.972C288.104 106.528 289.24 106.307 290.513 106.307C291.808 106.307 292.939 106.528 293.905 106.972C294.876 107.415 295.632 108.031 296.172 108.821C296.712 109.611 296.99 110.526 297.007 111.565H293.47ZM299.728 124V106.545H303.418V113.747H310.91V106.545H314.592V124H310.91V116.79H303.418V124H299.728ZM323.685 115.273C323.685 117.392 323.401 119.341 322.833 121.119C322.271 122.898 321.407 124.545 320.242 126.062H316.773C317.217 125.5 317.629 124.812 318.009 124C318.39 123.188 318.722 122.301 319.006 121.341C319.29 120.375 319.512 119.375 319.671 118.341C319.83 117.307 319.91 116.284 319.91 115.273C319.91 113.926 319.771 112.568 319.492 111.199C319.219 109.824 318.844 108.551 318.367 107.381C317.896 106.205 317.364 105.241 316.773 104.491H320.242C321.407 106.009 322.271 107.656 322.833 109.435C323.401 111.213 323.685 113.159 323.685 115.273Z" fill="white"/>
<path d="M73.4865 22.7102C73.441 22.2519 73.2459 21.8958 72.9012 21.642C72.5565 21.3883 72.0887 21.2614 71.4978 21.2614C71.0963 21.2614 70.7573 21.3182 70.4808 21.4318C70.2043 21.5417 69.9921 21.6951 69.8444 21.892C69.7005 22.089 69.6285 22.3125 69.6285 22.5625C69.6209 22.7708 69.6645 22.9527 69.7592 23.108C69.8577 23.2633 69.9921 23.3977 70.1626 23.5114C70.3331 23.6212 70.53 23.7178 70.7535 23.8011C70.977 23.8807 71.2156 23.9489 71.4694 24.0057L72.5149 24.2557C73.0224 24.3693 73.4884 24.5208 73.9126 24.7102C74.3368 24.8996 74.7043 25.1326 75.0149 25.4091C75.3255 25.6856 75.566 26.0114 75.7365 26.3864C75.9107 26.7614 75.9997 27.1913 76.0035 27.6761C75.9997 28.3883 75.8179 29.0057 75.4581 29.5284C75.102 30.0473 74.5868 30.4508 73.9126 30.7386C73.2421 31.0227 72.4334 31.1648 71.4865 31.1648C70.5471 31.1648 69.7289 31.0208 69.0319 30.733C68.3387 30.4451 67.7971 30.0189 67.4069 29.4545C67.0206 28.8864 66.8179 28.1837 66.799 27.3466H69.1796C69.2062 27.7367 69.3179 28.0625 69.5149 28.3239C69.7156 28.5814 69.9827 28.7765 70.316 28.9091C70.6531 29.0379 71.0338 29.1023 71.4581 29.1023C71.8747 29.1023 72.2365 29.0417 72.5433 28.9205C72.8539 28.7992 73.0944 28.6307 73.2649 28.4148C73.4353 28.1989 73.5206 27.9508 73.5206 27.6705C73.5206 27.4091 73.4429 27.1894 73.2876 27.0114C73.1361 26.8333 72.9126 26.6818 72.6171 26.5568C72.3255 26.4318 71.9675 26.3182 71.5433 26.2159L70.2762 25.8977C69.2952 25.6591 68.5206 25.286 67.9524 24.7784C67.3842 24.2708 67.102 23.5871 67.1058 22.7273C67.102 22.0227 67.2895 21.4072 67.6683 20.8807C68.0509 20.3542 68.5755 19.9432 69.2421 19.6477C69.9088 19.3523 70.6664 19.2045 71.5149 19.2045C72.3785 19.2045 73.1323 19.3523 73.7762 19.6477C74.424 19.9432 74.9277 20.3542 75.2876 20.8807C75.6474 21.4072 75.8331 22.017 75.8444 22.7102H73.4865ZM83.9708 22.7102C83.9254 22.2519 83.7303 21.8958 83.3856 21.642C83.0409 21.3883 82.5731 21.2614 81.9822 21.2614C81.5807 21.2614 81.2417 21.3182 80.9652 21.4318C80.6886 21.5417 80.4765 21.6951 80.3288 21.892C80.1849 22.089 80.1129 22.3125 80.1129 22.5625C80.1053 22.7708 80.1489 22.9527 80.2436 23.108C80.342 23.2633 80.4765 23.3977 80.647 23.5114C80.8174 23.6212 81.0144 23.7178 81.2379 23.8011C81.4614 23.8807 81.7 23.9489 81.9538 24.0057L82.9992 24.2557C83.5068 24.3693 83.9727 24.5208 84.397 24.7102C84.8212 24.8996 85.1886 25.1326 85.4992 25.4091C85.8099 25.6856 86.0504 26.0114 86.2208 26.3864C86.3951 26.7614 86.4841 27.1913 86.4879 27.6761C86.4841 28.3883 86.3023 29.0057 85.9424 29.5284C85.5864 30.0473 85.0712 30.4508 84.397 30.7386C83.7265 31.0227 82.9178 31.1648 81.9708 31.1648C81.0314 31.1648 80.2133 31.0208 79.5163 30.733C78.8231 30.4451 78.2814 30.0189 77.8913 29.4545C77.5049 28.8864 77.3023 28.1837 77.2833 27.3466H79.664C79.6905 27.7367 79.8023 28.0625 79.9992 28.3239C80.2 28.5814 80.467 28.7765 80.8004 28.9091C81.1375 29.0379 81.5182 29.1023 81.9424 29.1023C82.3591 29.1023 82.7208 29.0417 83.0277 28.9205C83.3383 28.7992 83.5788 28.6307 83.7492 28.4148C83.9197 28.1989 84.0049 27.9508 84.0049 27.6705C84.0049 27.4091 83.9273 27.1894 83.772 27.0114C83.6205 26.8333 83.397 26.6818 83.1015 26.5568C82.8099 26.4318 82.4519 26.3182 82.0277 26.2159L80.7606 25.8977C79.7795 25.6591 79.0049 25.286 78.4367 24.7784C77.8686 24.2708 77.5864 23.5871 77.5902 22.7273C77.5864 22.0227 77.7739 21.4072 78.1527 20.8807C78.5352 20.3542 79.0599 19.9432 79.7265 19.6477C80.3932 19.3523 81.1508 19.2045 81.9992 19.2045C82.8629 19.2045 83.6167 19.3523 84.2606 19.6477C84.9083 19.9432 85.4121 20.3542 85.772 20.8807C86.1318 21.4072 86.3174 22.017 86.3288 22.7102H83.9708ZM88.1427 31V19.3636H90.6029V24.1648H95.5973V19.3636H98.0518V31H95.5973V26.1932H90.6029V31H88.1427ZM110.971 19.3636H113.431V26.9205C113.431 27.7689 113.228 28.5114 112.823 29.1477C112.422 29.7841 111.859 30.2803 111.136 30.6364C110.412 30.9886 109.569 31.1648 108.607 31.1648C107.641 31.1648 106.797 30.9886 106.073 30.6364C105.35 30.2803 104.787 29.7841 104.386 29.1477C103.984 28.5114 103.783 27.7689 103.783 26.9205V19.3636H106.244V26.7102C106.244 27.1534 106.34 27.5473 106.533 27.892C106.73 28.2367 107.007 28.5076 107.363 28.7045C107.719 28.9015 108.134 29 108.607 29C109.084 29 109.499 28.9015 109.852 28.7045C110.208 28.5076 110.482 28.2367 110.675 27.892C110.872 27.5473 110.971 27.1534 110.971 26.7102V19.3636ZM122.671 24.7614L120.455 24.8977C120.417 24.7083 120.336 24.5379 120.211 24.3864C120.086 24.2311 119.921 24.108 119.717 24.017C119.516 23.9223 119.275 23.875 118.995 23.875C118.62 23.875 118.304 23.9545 118.046 24.1136C117.789 24.2689 117.66 24.4773 117.66 24.7386C117.66 24.947 117.743 25.1231 117.91 25.267C118.076 25.411 118.362 25.5265 118.768 25.6136L120.347 25.9318C121.196 26.1061 121.828 26.3864 122.245 26.7727C122.662 27.1591 122.87 27.6667 122.87 28.2955C122.87 28.8674 122.701 29.3693 122.364 29.8011C122.031 30.233 121.573 30.5701 120.989 30.8125C120.41 31.0511 119.741 31.1705 118.984 31.1705C117.828 31.1705 116.908 30.9299 116.222 30.4489C115.54 29.964 115.141 29.3049 115.023 28.4716L117.404 28.3466C117.476 28.6989 117.65 28.9678 117.927 29.1534C118.203 29.3352 118.557 29.4261 118.989 29.4261C119.414 29.4261 119.754 29.3447 120.012 29.1818C120.273 29.0152 120.406 28.8011 120.41 28.5398C120.406 28.3201 120.313 28.1402 120.131 28C119.95 27.8561 119.669 27.7462 119.29 27.6705L117.779 27.3693C116.927 27.1989 116.292 26.9034 115.876 26.483C115.463 26.0625 115.256 25.5265 115.256 24.875C115.256 24.3144 115.408 23.8314 115.711 23.4261C116.018 23.0208 116.448 22.7083 117.001 22.4886C117.557 22.2689 118.209 22.1591 118.955 22.1591C120.057 22.1591 120.925 22.392 121.557 22.858C122.194 23.3239 122.565 23.9583 122.671 24.7614ZM128.371 31.1705C127.474 31.1705 126.701 30.9886 126.053 30.625C125.409 30.2576 124.913 29.7386 124.565 29.0682C124.216 28.3939 124.042 27.5966 124.042 26.6761C124.042 25.7784 124.216 24.9905 124.565 24.3125C124.913 23.6345 125.404 23.1061 126.036 22.7273C126.673 22.3485 127.419 22.1591 128.275 22.1591C128.851 22.1591 129.387 22.2519 129.883 22.4375C130.383 22.6193 130.818 22.8939 131.19 23.2614C131.565 23.6288 131.856 24.0909 132.065 24.6477C132.273 25.2008 132.377 25.8485 132.377 26.5909V27.2557H125.008V25.7557H130.099C130.099 25.4072 130.023 25.0985 129.871 24.8295C129.72 24.5606 129.51 24.3504 129.241 24.1989C128.976 24.0436 128.667 23.9659 128.315 23.9659C127.947 23.9659 127.621 24.0511 127.337 24.2216C127.057 24.3883 126.837 24.6136 126.678 24.8977C126.519 25.178 126.438 25.4905 126.434 25.8352V27.2614C126.434 27.6932 126.513 28.0663 126.673 28.3807C126.835 28.6951 127.065 28.9375 127.36 29.108C127.655 29.2784 128.006 29.3636 128.411 29.3636C128.68 29.3636 128.926 29.3258 129.15 29.25C129.373 29.1742 129.565 29.0606 129.724 28.9091C129.883 28.7576 130.004 28.572 130.087 28.3523L132.326 28.5C132.212 29.0379 131.979 29.5076 131.627 29.9091C131.279 30.3068 130.828 30.6174 130.275 30.8409C129.726 31.0606 129.091 31.1705 128.371 31.1705ZM133.957 31V22.2727H136.303V23.7955H136.394C136.553 23.2538 136.82 22.8447 137.195 22.5682C137.57 22.2879 138.002 22.1477 138.491 22.1477C138.612 22.1477 138.743 22.1553 138.883 22.1705C139.023 22.1856 139.146 22.2064 139.252 22.233V24.3807C139.138 24.3466 138.981 24.3163 138.78 24.2898C138.58 24.2633 138.396 24.25 138.229 24.25C137.873 24.25 137.555 24.3277 137.275 24.483C136.998 24.6345 136.779 24.8466 136.616 25.1193C136.457 25.392 136.377 25.7064 136.377 26.0625V31H133.957ZM14.1796 50.1648C13.6228 50.1648 13.1266 50.0682 12.691 49.875C12.2554 49.678 11.9107 49.3883 11.6569 49.0057C11.4069 48.6193 11.2819 48.1383 11.2819 47.5625C11.2819 47.0777 11.3709 46.6705 11.549 46.3409C11.727 46.0114 11.9694 45.7462 12.2762 45.5455C12.5831 45.3447 12.9315 45.1932 13.3217 45.0909C13.7156 44.9886 14.1285 44.9167 14.5603 44.875C15.0679 44.822 15.477 44.7727 15.7876 44.7273C16.0982 44.678 16.3236 44.6061 16.4637 44.5114C16.6039 44.4167 16.674 44.2765 16.674 44.0909V44.0568C16.674 43.697 16.5603 43.4186 16.3331 43.2216C16.1096 43.0246 15.7914 42.9261 15.3785 42.9261C14.9429 42.9261 14.5963 43.0227 14.3387 43.2159C14.0812 43.4053 13.9107 43.6439 13.8274 43.9318L11.5887 43.75C11.7024 43.2197 11.9259 42.7614 12.2592 42.375C12.5925 41.9848 13.0224 41.6856 13.549 41.4773C14.0793 41.2652 14.6929 41.1591 15.3899 41.1591C15.8747 41.1591 16.3387 41.2159 16.7819 41.3295C17.2289 41.4432 17.6247 41.6193 17.9694 41.858C18.3179 42.0966 18.5925 42.4034 18.7933 42.7784C18.994 43.1496 19.0944 43.5947 19.0944 44.1136V50H16.799V48.7898H16.7308C16.5906 49.0625 16.4031 49.303 16.1683 49.5114C15.9334 49.7159 15.6512 49.8769 15.3217 49.9943C14.9921 50.108 14.6115 50.1648 14.1796 50.1648ZM14.8728 48.4943C15.2289 48.4943 15.5433 48.4242 15.816 48.2841C16.0887 48.1402 16.3027 47.947 16.4581 47.7045C16.6134 47.4621 16.691 47.1875 16.691 46.8807V45.9545C16.6152 46.0038 16.5111 46.0492 16.3785 46.0909C16.2497 46.1288 16.1039 46.1648 15.941 46.1989C15.7781 46.2292 15.6152 46.2576 15.4524 46.2841C15.2895 46.3068 15.1418 46.3277 15.0092 46.3466C14.7251 46.3883 14.477 46.4545 14.2649 46.5455C14.0527 46.6364 13.888 46.7595 13.7706 46.9148C13.6531 47.0663 13.5944 47.2557 13.5944 47.483C13.5944 47.8125 13.7137 48.0644 13.9524 48.2386C14.1948 48.4091 14.5016 48.4943 14.8728 48.4943ZM26.5688 46.2841V41.2727H28.9893V50H26.6654V48.4148H26.5745C26.3776 48.9261 26.0499 49.3371 25.5916 49.6477C25.137 49.9583 24.5821 50.1136 23.9268 50.1136C23.3435 50.1136 22.8302 49.9811 22.387 49.7159C21.9438 49.4508 21.5973 49.0739 21.3473 48.5852C21.101 48.0966 20.976 47.5114 20.9723 46.8295V41.2727H23.3927V46.3977C23.3965 46.9129 23.5348 47.3201 23.8075 47.6193C24.0802 47.9186 24.4457 48.0682 24.9041 48.0682C25.1957 48.0682 25.4685 48.0019 25.7223 47.8693C25.976 47.733 26.1806 47.5322 26.3359 47.267C26.495 47.0019 26.5726 46.6742 26.5688 46.2841ZM35.5674 41.2727V43.0909H30.3117V41.2727H35.5674ZM31.5049 39.1818H33.9254V47.3182C33.9254 47.5417 33.9595 47.7159 34.0277 47.8409C34.0958 47.9621 34.1905 48.0473 34.3117 48.0966C34.4367 48.1458 34.5807 48.1705 34.7436 48.1705C34.8572 48.1705 34.9708 48.161 35.0845 48.142C35.1981 48.1193 35.2852 48.1023 35.3458 48.0909L35.7265 49.892C35.6053 49.9299 35.4349 49.9735 35.2152 50.0227C34.9955 50.0758 34.7284 50.108 34.414 50.1193C33.8307 50.142 33.3193 50.0644 32.8799 49.8864C32.4443 49.7083 32.1053 49.4318 31.8629 49.0568C31.6205 48.6818 31.5011 48.2083 31.5049 47.6364V39.1818ZM39.7521 44.9545V50H37.3316V38.3636H39.6839V42.8125H39.7862C39.9831 42.2973 40.3013 41.8939 40.7407 41.6023C41.1801 41.3068 41.7313 41.1591 42.3941 41.1591C43.0002 41.1591 43.5286 41.2917 43.9794 41.5568C44.4339 41.8182 44.7862 42.1951 45.0362 42.6875C45.29 43.1761 45.415 43.7614 45.4112 44.4432V50H42.9907V44.875C42.9945 44.3371 42.8581 43.9186 42.5816 43.6193C42.3089 43.3201 41.9263 43.1705 41.4339 43.1705C41.1044 43.1705 40.8127 43.2405 40.5589 43.3807C40.3089 43.5208 40.1119 43.7254 39.968 43.9943C39.8278 44.2595 39.7559 44.5795 39.7521 44.9545ZM51.2933 50.1705C50.3956 50.1705 49.6228 49.9886 48.9751 49.625C48.3312 49.2576 47.8349 48.7386 47.4865 48.0682C47.138 47.3939 46.9637 46.5966 46.9637 45.6761C46.9637 44.7784 47.138 43.9905 47.4865 43.3125C47.8349 42.6345 48.3255 42.1061 48.9581 41.7273C49.5944 41.3485 50.3406 41.1591 51.1967 41.1591C51.7724 41.1591 52.3084 41.2519 52.8046 41.4375C53.3046 41.6193 53.7402 41.8939 54.1115 42.2614C54.4865 42.6288 54.7781 43.0909 54.9865 43.6477C55.1948 44.2008 55.299 44.8485 55.299 45.5909V46.2557H47.9296V44.7557H53.0206C53.0206 44.4072 52.9448 44.0985 52.7933 43.8295C52.6418 43.5606 52.4315 43.3504 52.1626 43.1989C51.8974 43.0436 51.5887 42.9659 51.2365 42.9659C50.869 42.9659 50.5433 43.0511 50.2592 43.2216C49.9789 43.3883 49.7592 43.6136 49.6001 43.8977C49.441 44.178 49.3596 44.4905 49.3558 44.8352V46.2614C49.3558 46.6932 49.4353 47.0663 49.5944 47.3807C49.7573 47.6951 49.9865 47.9375 50.2819 48.108C50.5774 48.2784 50.9277 48.3636 51.3331 48.3636C51.602 48.3636 51.8482 48.3258 52.0717 48.25C52.2952 48.1742 52.4865 48.0606 52.6456 47.9091C52.8046 47.7576 52.9259 47.572 53.0092 47.3523L55.2478 47.5C55.1342 48.0379 54.9012 48.5076 54.549 48.9091C54.2005 49.3068 53.7497 49.6174 53.1967 49.8409C52.6474 50.0606 52.013 50.1705 51.2933 50.1705ZM59.299 44.9545V50H56.8785V41.2727H59.1853V42.8125H59.2876C59.4808 42.3049 59.8046 41.9034 60.2592 41.608C60.7137 41.3087 61.2649 41.1591 61.9126 41.1591C62.5187 41.1591 63.0471 41.2917 63.4978 41.5568C63.9486 41.822 64.299 42.2008 64.549 42.6932C64.799 43.1818 64.924 43.7652 64.924 44.4432V50H62.5035V44.875C62.5073 44.3409 62.3709 43.9242 62.0944 43.625C61.8179 43.322 61.4372 43.1705 60.9524 43.1705C60.6266 43.1705 60.3387 43.2405 60.0887 43.3807C59.8425 43.5208 59.6493 43.7254 59.5092 43.9943C59.3728 44.2595 59.3027 44.5795 59.299 44.9545ZM71.4737 41.2727V43.0909H66.218V41.2727H71.4737ZM67.4112 39.1818H69.8316V47.3182C69.8316 47.5417 69.8657 47.7159 69.9339 47.8409C70.0021 47.9621 70.0968 48.0473 70.218 48.0966C70.343 48.1458 70.4869 48.1705 70.6498 48.1705C70.7634 48.1705 70.8771 48.161 70.9907 48.142C71.1044 48.1193 71.1915 48.1023 71.2521 48.0909L71.6328 49.892C71.5116 49.9299 71.3411 49.9735 71.1214 50.0227C70.9017 50.0758 70.6347 50.108 70.3203 50.1193C69.7369 50.142 69.2256 50.0644 68.7862 49.8864C68.3506 49.7083 68.0116 49.4318 67.7691 49.0568C67.5267 48.6818 67.4074 48.2083 67.4112 47.6364V39.1818ZM73.0504 50V41.2727H75.4708V50H73.0504ZM74.2663 40.1477C73.9064 40.1477 73.5977 40.0284 73.3402 39.7898C73.0864 39.5473 72.9595 39.2576 72.9595 38.9205C72.9595 38.5871 73.0864 38.3011 73.3402 38.0625C73.5977 37.8201 73.9064 37.6989 74.2663 37.6989C74.6261 37.6989 74.933 37.8201 75.1867 38.0625C75.4443 38.3011 75.5731 38.5871 75.5731 38.9205C75.5731 39.2576 75.4443 39.5473 75.1867 39.7898C74.933 40.0284 74.6261 40.1477 74.2663 40.1477ZM81.3529 50.1705C80.459 50.1705 79.6901 49.9811 79.0461 49.6023C78.406 49.2197 77.9135 48.6894 77.5688 48.0114C77.2279 47.3333 77.0575 46.553 77.0575 45.6705C77.0575 44.7765 77.2298 43.9924 77.5745 43.3182C77.923 42.6402 78.4173 42.1117 79.0575 41.733C79.6976 41.3504 80.459 41.1591 81.3416 41.1591C82.1029 41.1591 82.7696 41.2973 83.3416 41.5739C83.9135 41.8504 84.3662 42.2386 84.6995 42.7386C85.0329 43.2386 85.2166 43.8258 85.2507 44.5H82.9666C82.9022 44.0644 82.7317 43.714 82.4552 43.4489C82.1825 43.1799 81.8245 43.0455 81.3813 43.0455C81.0063 43.0455 80.6787 43.1477 80.3984 43.3523C80.1219 43.553 79.906 43.8466 79.7507 44.233C79.5954 44.6193 79.5177 45.0871 79.5177 45.6364C79.5177 46.1932 79.5935 46.6667 79.745 47.0568C79.9003 47.447 80.1181 47.7443 80.3984 47.9489C80.6787 48.1534 81.0063 48.2557 81.3813 48.2557C81.6579 48.2557 81.906 48.1989 82.1257 48.0852C82.3492 47.9716 82.5329 47.8068 82.6768 47.5909C82.8245 47.3712 82.9211 47.108 82.9666 46.8011H85.2507C85.2128 47.4678 85.031 48.0549 84.7052 48.5625C84.3832 49.0663 83.9382 49.4602 83.37 49.7443C82.8018 50.0284 82.1295 50.1705 81.3529 50.1705ZM89.289 50.1648C88.7322 50.1648 88.236 50.0682 87.8004 49.875C87.3648 49.678 87.0201 49.3883 86.7663 49.0057C86.5163 48.6193 86.3913 48.1383 86.3913 47.5625C86.3913 47.0777 86.4803 46.6705 86.6583 46.3409C86.8364 46.0114 87.0788 45.7462 87.3856 45.5455C87.6924 45.3447 88.0409 45.1932 88.4311 45.0909C88.825 44.9886 89.2379 44.9167 89.6697 44.875C90.1773 44.822 90.5864 44.7727 90.897 44.7273C91.2076 44.678 91.433 44.6061 91.5731 44.5114C91.7133 44.4167 91.7833 44.2765 91.7833 44.0909V44.0568C91.7833 43.697 91.6697 43.4186 91.4424 43.2216C91.2189 43.0246 90.9008 42.9261 90.4879 42.9261C90.0523 42.9261 89.7057 43.0227 89.4481 43.2159C89.1905 43.4053 89.0201 43.6439 88.9367 43.9318L86.6981 43.75C86.8117 43.2197 87.0352 42.7614 87.3686 42.375C87.7019 41.9848 88.1318 41.6856 88.6583 41.4773C89.1886 41.2652 89.8023 41.1591 90.4992 41.1591C90.9841 41.1591 91.4481 41.2159 91.8913 41.3295C92.3383 41.4432 92.7341 41.6193 93.0788 41.858C93.4273 42.0966 93.7019 42.4034 93.9027 42.7784C94.1034 43.1496 94.2038 43.5947 94.2038 44.1136V50H91.9083V48.7898H91.8402C91.7 49.0625 91.5125 49.303 91.2777 49.5114C91.0428 49.7159 90.7606 49.8769 90.4311 49.9943C90.1015 50.108 89.7208 50.1648 89.289 50.1648ZM89.9822 48.4943C90.3383 48.4943 90.6527 48.4242 90.9254 48.2841C91.1981 48.1402 91.4121 47.947 91.5674 47.7045C91.7227 47.4621 91.8004 47.1875 91.8004 46.8807V45.9545C91.7246 46.0038 91.6205 46.0492 91.4879 46.0909C91.3591 46.1288 91.2133 46.1648 91.0504 46.1989C90.8875 46.2292 90.7246 46.2576 90.5617 46.2841C90.3989 46.3068 90.2511 46.3277 90.1186 46.3466C89.8345 46.3883 89.5864 46.4545 89.3742 46.5455C89.1621 46.6364 88.9974 46.7595 88.8799 46.9148C88.7625 47.0663 88.7038 47.2557 88.7038 47.483C88.7038 47.8125 88.8231 48.0644 89.0617 48.2386C89.3042 48.4091 89.611 48.4943 89.9822 48.4943ZM100.724 41.2727V43.0909H95.468V41.2727H100.724ZM96.6612 39.1818H99.0816V47.3182C99.0816 47.5417 99.1157 47.7159 99.1839 47.8409C99.2521 47.9621 99.3468 48.0473 99.468 48.0966C99.593 48.1458 99.7369 48.1705 99.8998 48.1705C100.013 48.1705 100.127 48.161 100.241 48.142C100.354 48.1193 100.441 48.1023 100.502 48.0909L100.883 49.892C100.762 49.9299 100.591 49.9735 100.371 50.0227C100.152 50.0758 99.8847 50.108 99.5703 50.1193C98.9869 50.142 98.4756 50.0644 98.0362 49.8864C97.6006 49.7083 97.2616 49.4318 97.0191 49.0568C96.7767 48.6818 96.6574 48.2083 96.6612 47.6364V39.1818ZM102.3 50V41.2727H104.721V50H102.3ZM103.516 40.1477C103.156 40.1477 102.848 40.0284 102.59 39.7898C102.336 39.5473 102.209 39.2576 102.209 38.9205C102.209 38.5871 102.336 38.3011 102.59 38.0625C102.848 37.8201 103.156 37.6989 103.516 37.6989C103.876 37.6989 104.183 37.8201 104.437 38.0625C104.694 38.3011 104.823 38.5871 104.823 38.9205C104.823 39.2576 104.694 39.5473 104.437 39.7898C104.183 40.0284 103.876 40.1477 103.516 40.1477ZM110.603 50.1705C109.72 50.1705 108.957 49.983 108.313 49.608C107.673 49.2292 107.179 48.7027 106.83 48.0284C106.482 47.3504 106.307 46.5644 106.307 45.6705C106.307 44.7689 106.482 43.9811 106.83 43.3068C107.179 42.6288 107.673 42.1023 108.313 41.7273C108.957 41.3485 109.72 41.1591 110.603 41.1591C111.486 41.1591 112.247 41.3485 112.887 41.7273C113.531 42.1023 114.027 42.6288 114.376 43.3068C114.724 43.9811 114.898 44.7689 114.898 45.6705C114.898 46.5644 114.724 47.3504 114.376 48.0284C114.027 48.7027 113.531 49.2292 112.887 49.608C112.247 49.983 111.486 50.1705 110.603 50.1705ZM110.614 48.2955C111.016 48.2955 111.351 48.1818 111.62 47.9545C111.889 47.7235 112.092 47.4091 112.228 47.0114C112.368 46.6136 112.438 46.161 112.438 45.6534C112.438 45.1458 112.368 44.6932 112.228 44.2955C112.092 43.8977 111.889 43.5833 111.62 43.3523C111.351 43.1212 111.016 43.0057 110.614 43.0057C110.209 43.0057 109.868 43.1212 109.592 43.3523C109.319 43.5833 109.112 43.8977 108.972 44.2955C108.836 44.6932 108.768 45.1458 108.768 45.6534C108.768 46.161 108.836 46.6136 108.972 47.0114C109.112 47.4091 109.319 47.7235 109.592 47.9545C109.868 48.1818 110.209 48.2955 110.614 48.2955ZM118.893 44.9545V50H116.472V41.2727H118.779V42.8125H118.881C119.075 42.3049 119.398 41.9034 119.853 41.608C120.307 41.3087 120.859 41.1591 121.506 41.1591C122.112 41.1591 122.641 41.2917 123.092 41.5568C123.542 41.822 123.893 42.2008 124.143 42.6932C124.393 43.1818 124.518 43.7652 124.518 44.4432V50H122.097V44.875C122.101 44.3409 121.965 43.9242 121.688 43.625C121.412 43.322 121.031 43.1705 120.546 43.1705C120.22 43.1705 119.932 43.2405 119.682 43.3807C119.436 43.5208 119.243 43.7254 119.103 43.9943C118.967 44.2595 118.896 44.5795 118.893 44.9545ZM130.174 50V38.3636H134.765C135.647 38.3636 136.399 38.5322 137.021 38.8693C137.642 39.2027 138.115 39.6667 138.441 40.2614C138.771 40.8523 138.935 41.5341 138.935 42.3068C138.935 43.0795 138.769 43.7614 138.435 44.3523C138.102 44.9432 137.619 45.4034 136.986 45.733C136.358 46.0625 135.596 46.2273 134.702 46.2273H131.776V44.2557H134.305C134.778 44.2557 135.168 44.1742 135.475 44.0114C135.786 43.8447 136.017 43.6155 136.168 43.3239C136.324 43.0284 136.401 42.6894 136.401 42.3068C136.401 41.9205 136.324 41.5833 136.168 41.2955C136.017 41.0038 135.786 40.7784 135.475 40.6193C135.164 40.4564 134.771 40.375 134.293 40.375H132.634V50H130.174ZM140.488 50V41.2727H142.834V42.7955H142.925C143.084 42.2538 143.352 41.8447 143.727 41.5682C144.102 41.2879 144.533 41.1477 145.022 41.1477C145.143 41.1477 145.274 41.1553 145.414 41.1705C145.554 41.1856 145.677 41.2064 145.783 41.233V43.3807C145.67 43.3466 145.513 43.3163 145.312 43.2898C145.111 43.2633 144.927 43.25 144.761 43.25C144.405 43.25 144.086 43.3277 143.806 43.483C143.53 43.6345 143.31 43.8466 143.147 44.1193C142.988 44.392 142.908 44.7064 142.908 45.0625V50H140.488ZM150.572 50.1705C149.689 50.1705 148.926 49.983 148.282 49.608C147.642 49.2292 147.147 48.7027 146.799 48.0284C146.45 47.3504 146.276 46.5644 146.276 45.6705C146.276 44.7689 146.45 43.9811 146.799 43.3068C147.147 42.6288 147.642 42.1023 148.282 41.7273C148.926 41.3485 149.689 41.1591 150.572 41.1591C151.454 41.1591 152.216 41.3485 152.856 41.7273C153.5 42.1023 153.996 42.6288 154.344 43.3068C154.693 43.9811 154.867 44.7689 154.867 45.6705C154.867 46.5644 154.693 47.3504 154.344 48.0284C153.996 48.7027 153.5 49.2292 152.856 49.608C152.216 49.983 151.454 50.1705 150.572 50.1705ZM150.583 48.2955C150.985 48.2955 151.32 48.1818 151.589 47.9545C151.858 47.7235 152.06 47.4091 152.197 47.0114C152.337 46.6136 152.407 46.161 152.407 45.6534C152.407 45.1458 152.337 44.6932 152.197 44.2955C152.06 43.8977 151.858 43.5833 151.589 43.3523C151.32 43.1212 150.985 43.0057 150.583 43.0057C150.178 43.0057 149.837 43.1212 149.56 43.3523C149.288 43.5833 149.081 43.8977 148.941 44.2955C148.805 44.6932 148.736 45.1458 148.736 45.6534C148.736 46.161 148.805 46.6136 148.941 47.0114C149.081 47.4091 149.288 47.7235 149.56 47.9545C149.837 48.1818 150.178 48.2955 150.583 48.2955ZM161.083 41.2727V43.0909H155.827V41.2727H161.083ZM157.021 39.1818H159.441V47.3182C159.441 47.5417 159.475 47.7159 159.543 47.8409C159.611 47.9621 159.706 48.0473 159.827 48.0966C159.952 48.1458 160.096 48.1705 160.259 48.1705C160.373 48.1705 160.486 48.161 160.6 48.142C160.714 48.1193 160.801 48.1023 160.861 48.0909L161.242 49.892C161.121 49.9299 160.95 49.9735 160.731 50.0227C160.511 50.0758 160.244 50.108 159.93 50.1193C159.346 50.142 158.835 50.0644 158.396 49.8864C157.96 49.7083 157.621 49.4318 157.379 49.0568C157.136 48.6818 157.017 48.2083 157.021 47.6364V39.1818ZM166.509 50.1705C165.627 50.1705 164.863 49.983 164.219 49.608C163.579 49.2292 163.085 48.7027 162.736 48.0284C162.388 47.3504 162.214 46.5644 162.214 45.6705C162.214 44.7689 162.388 43.9811 162.736 43.3068C163.085 42.6288 163.579 42.1023 164.219 41.7273C164.863 41.3485 165.627 41.1591 166.509 41.1591C167.392 41.1591 168.153 41.3485 168.793 41.7273C169.437 42.1023 169.933 42.6288 170.282 43.3068C170.63 43.9811 170.805 44.7689 170.805 45.6705C170.805 46.5644 170.63 47.3504 170.282 48.0284C169.933 48.7027 169.437 49.2292 168.793 49.608C168.153 49.983 167.392 50.1705 166.509 50.1705ZM166.521 48.2955C166.922 48.2955 167.257 48.1818 167.526 47.9545C167.795 47.7235 167.998 47.4091 168.134 47.0114C168.274 46.6136 168.344 46.161 168.344 45.6534C168.344 45.1458 168.274 44.6932 168.134 44.2955C167.998 43.8977 167.795 43.5833 167.526 43.3523C167.257 43.1212 166.922 43.0057 166.521 43.0057C166.115 43.0057 165.774 43.1212 165.498 43.3523C165.225 43.5833 165.019 43.8977 164.879 44.2955C164.742 44.6932 164.674 45.1458 164.674 45.6534C164.674 46.161 164.742 46.6136 164.879 47.0114C165.019 47.4091 165.225 47.7235 165.498 47.9545C165.774 48.1818 166.115 48.2955 166.521 48.2955ZM176.322 50.1705C175.428 50.1705 174.659 49.9811 174.015 49.6023C173.375 49.2197 172.882 48.6894 172.538 48.0114C172.197 47.3333 172.026 46.553 172.026 45.6705C172.026 44.7765 172.199 43.9924 172.543 43.3182C172.892 42.6402 173.386 42.1117 174.026 41.733C174.666 41.3504 175.428 41.1591 176.31 41.1591C177.072 41.1591 177.738 41.2973 178.31 41.5739C178.882 41.8504 179.335 42.2386 179.668 42.7386C180.002 43.2386 180.185 43.8258 180.219 44.5H177.935C177.871 44.0644 177.7 43.714 177.424 43.4489C177.151 43.1799 176.793 43.0455 176.35 43.0455C175.975 43.0455 175.647 43.1477 175.367 43.3523C175.091 43.553 174.875 43.8466 174.719 44.233C174.564 44.6193 174.486 45.0871 174.486 45.6364C174.486 46.1932 174.562 46.6667 174.714 47.0568C174.869 47.447 175.087 47.7443 175.367 47.9489C175.647 48.1534 175.975 48.2557 176.35 48.2557C176.627 48.2557 176.875 48.1989 177.094 48.0852C177.318 47.9716 177.502 47.8068 177.646 47.5909C177.793 47.3712 177.89 47.108 177.935 46.8011H180.219C180.182 47.4678 180 48.0549 179.674 48.5625C179.352 49.0663 178.907 49.4602 178.339 49.7443C177.771 50.0284 177.098 50.1705 176.322 50.1705ZM185.712 50.1705C184.83 50.1705 184.066 49.983 183.423 49.608C182.782 49.2292 182.288 48.7027 181.94 48.0284C181.591 47.3504 181.417 46.5644 181.417 45.6705C181.417 44.7689 181.591 43.9811 181.94 43.3068C182.288 42.6288 182.782 42.1023 183.423 41.7273C184.066 41.3485 184.83 41.1591 185.712 41.1591C186.595 41.1591 187.356 41.3485 187.996 41.7273C188.64 42.1023 189.137 42.6288 189.485 43.3068C189.834 43.9811 190.008 44.7689 190.008 45.6705C190.008 46.5644 189.834 47.3504 189.485 48.0284C189.137 48.7027 188.64 49.2292 187.996 49.608C187.356 49.983 186.595 50.1705 185.712 50.1705ZM185.724 48.2955C186.125 48.2955 186.46 48.1818 186.729 47.9545C186.998 47.7235 187.201 47.4091 187.337 47.0114C187.477 46.6136 187.548 46.161 187.548 45.6534C187.548 45.1458 187.477 44.6932 187.337 44.2955C187.201 43.8977 186.998 43.5833 186.729 43.3523C186.46 43.1212 186.125 43.0057 185.724 43.0057C185.318 43.0057 184.977 43.1212 184.701 43.3523C184.428 43.5833 184.222 43.8977 184.082 44.2955C183.945 44.6932 183.877 45.1458 183.877 45.6534C183.877 46.161 183.945 46.6136 184.082 47.0114C184.222 47.4091 184.428 47.7235 184.701 47.9545C184.977 48.1818 185.318 48.2955 185.724 48.2955ZM194.002 38.3636V50H191.582V38.3636H194.002Z" fill="white"/>
<path d="M270.996 22.7102C270.95 22.2519 270.755 21.8958 270.411 21.642C270.066 21.3883 269.598 21.2614 269.007 21.2614C268.606 21.2614 268.267 21.3182 267.99 21.4318C267.714 21.5417 267.501 21.6951 267.354 21.892C267.21 22.089 267.138 22.3125 267.138 22.5625C267.13 22.7708 267.174 22.9527 267.268 23.108C267.367 23.2633 267.501 23.3977 267.672 23.5114C267.842 23.6212 268.039 23.7178 268.263 23.8011C268.486 23.8807 268.725 23.9489 268.979 24.0057L270.024 24.2557C270.532 24.3693 270.998 24.5208 271.422 24.7102C271.846 24.8996 272.214 25.1326 272.524 25.4091C272.835 25.6856 273.075 26.0114 273.246 26.3864C273.42 26.7614 273.509 27.1913 273.513 27.6761C273.509 28.3883 273.327 29.0057 272.967 29.5284C272.611 30.0473 272.096 30.4508 271.422 30.7386C270.751 31.0227 269.943 31.1648 268.996 31.1648C268.056 31.1648 267.238 31.0208 266.541 30.733C265.848 30.4451 265.306 30.0189 264.916 29.4545C264.53 28.8864 264.327 28.1837 264.308 27.3466H266.689C266.715 27.7367 266.827 28.0625 267.024 28.3239C267.225 28.5814 267.492 28.7765 267.825 28.9091C268.162 29.0379 268.543 29.1023 268.967 29.1023C269.384 29.1023 269.746 29.0417 270.053 28.9205C270.363 28.7992 270.604 28.6307 270.774 28.4148C270.945 28.1989 271.03 27.9508 271.03 27.6705C271.03 27.4091 270.952 27.1894 270.797 27.0114C270.645 26.8333 270.422 26.6818 270.126 26.5568C269.835 26.4318 269.477 26.3182 269.053 26.2159L267.786 25.8977C266.804 25.6591 266.03 25.286 265.462 24.7784C264.893 24.2708 264.611 23.5871 264.615 22.7273C264.611 22.0227 264.799 21.4072 265.178 20.8807C265.56 20.3542 266.085 19.9432 266.751 19.6477C267.418 19.3523 268.176 19.2045 269.024 19.2045C269.888 19.2045 270.642 19.3523 271.286 19.6477C271.933 19.9432 272.437 20.3542 272.797 20.8807C273.157 21.4072 273.342 22.017 273.354 22.7102H270.996ZM281.48 22.7102C281.435 22.2519 281.24 21.8958 280.895 21.642C280.55 21.3883 280.082 21.2614 279.491 21.2614C279.09 21.2614 278.751 21.3182 278.474 21.4318C278.198 21.5417 277.986 21.6951 277.838 21.892C277.694 22.089 277.622 22.3125 277.622 22.5625C277.615 22.7708 277.658 22.9527 277.753 23.108C277.851 23.2633 277.986 23.3977 278.156 23.5114C278.327 23.6212 278.524 23.7178 278.747 23.8011C278.971 23.8807 279.209 23.9489 279.463 24.0057L280.509 24.2557C281.016 24.3693 281.482 24.5208 281.906 24.7102C282.33 24.8996 282.698 25.1326 283.009 25.4091C283.319 25.6856 283.56 26.0114 283.73 26.3864C283.904 26.7614 283.993 27.1913 283.997 27.6761C283.993 28.3883 283.812 29.0057 283.452 29.5284C283.096 30.0473 282.58 30.4508 281.906 30.7386C281.236 31.0227 280.427 31.1648 279.48 31.1648C278.541 31.1648 277.723 31.0208 277.026 30.733C276.332 30.4451 275.791 30.0189 275.401 29.4545C275.014 28.8864 274.812 28.1837 274.793 27.3466H277.173C277.2 27.7367 277.312 28.0625 277.509 28.3239C277.709 28.5814 277.976 28.7765 278.31 28.9091C278.647 29.0379 279.027 29.1023 279.452 29.1023C279.868 29.1023 280.23 29.0417 280.537 28.9205C280.848 28.7992 281.088 28.6307 281.259 28.4148C281.429 28.1989 281.514 27.9508 281.514 27.6705C281.514 27.4091 281.437 27.1894 281.281 27.0114C281.13 26.8333 280.906 26.6818 280.611 26.5568C280.319 26.4318 279.961 26.3182 279.537 26.2159L278.27 25.8977C277.289 25.6591 276.514 25.286 275.946 24.7784C275.378 24.2708 275.096 23.5871 275.099 22.7273C275.096 22.0227 275.283 21.4072 275.662 20.8807C276.045 20.3542 276.569 19.9432 277.236 19.6477C277.902 19.3523 278.66 19.2045 279.509 19.2045C280.372 19.2045 281.126 19.3523 281.77 19.6477C282.418 19.9432 282.921 20.3542 283.281 20.8807C283.641 21.4072 283.827 22.017 283.838 22.7102H281.48ZM285.652 31V19.3636H288.112V24.1648H293.107V19.3636H295.561V31H293.107V26.1932H288.112V31H285.652ZM311.56 23.4375H309.071C309.026 23.1155 308.933 22.8295 308.793 22.5795C308.652 22.3258 308.473 22.1098 308.253 21.9318C308.033 21.7538 307.779 21.6174 307.491 21.5227C307.207 21.428 306.899 21.3807 306.565 21.3807C305.963 21.3807 305.438 21.5303 304.991 21.8295C304.545 22.125 304.198 22.5568 303.952 23.125C303.705 23.6894 303.582 24.375 303.582 25.1818C303.582 26.0114 303.705 26.7083 303.952 27.2727C304.202 27.8371 304.55 28.2633 304.997 28.5511C305.444 28.839 305.961 28.983 306.548 28.983C306.878 28.983 307.183 28.9394 307.463 28.8523C307.747 28.7652 307.999 28.6383 308.219 28.4716C308.438 28.3011 308.62 28.0947 308.764 27.8523C308.912 27.6098 309.014 27.3333 309.071 27.0227L311.56 27.0341C311.495 27.5682 311.334 28.0833 311.077 28.5795C310.823 29.072 310.48 29.5133 310.048 29.9034C309.62 30.2898 309.109 30.5966 308.514 30.8239C307.923 31.0473 307.255 31.1591 306.509 31.1591C305.471 31.1591 304.543 30.9242 303.724 30.4545C302.91 29.9848 302.266 29.3049 301.793 28.4148C301.323 27.5246 301.088 26.447 301.088 25.1818C301.088 23.9129 301.327 22.8333 301.804 21.9432C302.281 21.053 302.929 20.375 303.747 19.9091C304.565 19.4394 305.486 19.2045 306.509 19.2045C307.183 19.2045 307.808 19.2992 308.384 19.4886C308.963 19.678 309.476 19.9545 309.923 20.3182C310.37 20.678 310.734 21.1193 311.014 21.642C311.298 22.1648 311.48 22.7633 311.56 23.4375ZM317.222 31.1705C316.339 31.1705 315.576 30.983 314.932 30.608C314.292 30.2292 313.797 29.7027 313.449 29.0284C313.1 28.3504 312.926 27.5644 312.926 26.6705C312.926 25.7689 313.1 24.9811 313.449 24.3068C313.797 23.6288 314.292 23.1023 314.932 22.7273C315.576 22.3485 316.339 22.1591 317.222 22.1591C318.104 22.1591 318.866 22.3485 319.506 22.7273C320.15 23.1023 320.646 23.6288 320.994 24.3068C321.343 24.9811 321.517 25.7689 321.517 26.6705C321.517 27.5644 321.343 28.3504 320.994 29.0284C320.646 29.7027 320.15 30.2292 319.506 30.608C318.866 30.983 318.104 31.1705 317.222 31.1705ZM317.233 29.2955C317.634 29.2955 317.97 29.1818 318.239 28.9545C318.508 28.7235 318.71 28.4091 318.847 28.0114C318.987 27.6136 319.057 27.161 319.057 26.6534C319.057 26.1458 318.987 25.6932 318.847 25.2955C318.71 24.8977 318.508 24.5833 318.239 24.3523C317.97 24.1212 317.634 24.0057 317.233 24.0057C316.828 24.0057 316.487 24.1212 316.21 24.3523C315.938 24.5833 315.731 24.8977 315.591 25.2955C315.455 25.6932 315.386 26.1458 315.386 26.6534C315.386 27.161 315.455 27.6136 315.591 28.0114C315.731 28.4091 315.938 28.7235 316.21 28.9545C316.487 29.1818 316.828 29.2955 317.233 29.2955ZM325.511 25.9545V31H323.091V22.2727H325.398V23.8125H325.5C325.693 23.3049 326.017 22.9034 326.472 22.608C326.926 22.3087 327.477 22.1591 328.125 22.1591C328.731 22.1591 329.259 22.2917 329.71 22.5568C330.161 22.822 330.511 23.2008 330.761 23.6932C331.011 24.1818 331.136 24.7652 331.136 25.4432V31H328.716V25.875C328.72 25.3409 328.583 24.9242 328.307 24.625C328.03 24.322 327.65 24.1705 327.165 24.1705C326.839 24.1705 326.551 24.2405 326.301 24.3807C326.055 24.5208 325.862 24.7254 325.722 24.9943C325.585 25.2595 325.515 25.5795 325.511 25.9545ZM335.464 25.9545V31H333.044V22.2727H335.351V23.8125H335.453C335.646 23.3049 335.97 22.9034 336.425 22.608C336.879 22.3087 337.43 22.1591 338.078 22.1591C338.684 22.1591 339.213 22.2917 339.663 22.5568C340.114 22.822 340.464 23.2008 340.714 23.6932C340.964 24.1818 341.089 24.7652 341.089 25.4432V31H338.669V25.875C338.673 25.3409 338.536 24.9242 338.26 24.625C337.983 24.322 337.603 24.1705 337.118 24.1705C336.792 24.1705 336.504 24.2405 336.254 24.3807C336.008 24.5208 335.815 24.7254 335.675 24.9943C335.538 25.2595 335.468 25.5795 335.464 25.9545ZM346.974 31.1705C346.077 31.1705 345.304 30.9886 344.656 30.625C344.012 30.2576 343.516 29.7386 343.168 29.0682C342.819 28.3939 342.645 27.5966 342.645 26.6761C342.645 25.7784 342.819 24.9905 343.168 24.3125C343.516 23.6345 344.007 23.1061 344.639 22.7273C345.276 22.3485 346.022 22.1591 346.878 22.1591C347.454 22.1591 347.99 22.2519 348.486 22.4375C348.986 22.6193 349.421 22.8939 349.793 23.2614C350.168 23.6288 350.459 24.0909 350.668 24.6477C350.876 25.2008 350.98 25.8485 350.98 26.5909V27.2557H343.611V25.7557H348.702C348.702 25.4072 348.626 25.0985 348.474 24.8295C348.323 24.5606 348.113 24.3504 347.844 24.1989C347.579 24.0436 347.27 23.9659 346.918 23.9659C346.55 23.9659 346.224 24.0511 345.94 24.2216C345.66 24.3883 345.44 24.6136 345.281 24.8977C345.122 25.178 345.041 25.4905 345.037 25.8352V27.2614C345.037 27.6932 345.116 28.0663 345.276 28.3807C345.438 28.6951 345.668 28.9375 345.963 29.108C346.259 29.2784 346.609 29.3636 347.014 29.3636C347.283 29.3636 347.529 29.3258 347.753 29.25C347.976 29.1742 348.168 29.0606 348.327 28.9091C348.486 28.7576 348.607 28.572 348.69 28.3523L350.929 28.5C350.815 29.0379 350.582 29.5076 350.23 29.9091C349.882 30.3068 349.431 30.6174 348.878 30.8409C348.329 31.0606 347.694 31.1705 346.974 31.1705ZM356.503 31.1705C355.609 31.1705 354.84 30.9811 354.196 30.6023C353.556 30.2197 353.063 29.6894 352.719 29.0114C352.378 28.3333 352.207 27.553 352.207 26.6705C352.207 25.7765 352.38 24.9924 352.724 24.3182C353.073 23.6402 353.567 23.1117 354.207 22.733C354.848 22.3504 355.609 22.1591 356.491 22.1591C357.253 22.1591 357.92 22.2973 358.491 22.5739C359.063 22.8504 359.516 23.2386 359.849 23.7386C360.183 24.2386 360.366 24.8258 360.401 25.5H358.116C358.052 25.0644 357.882 24.714 357.605 24.4489C357.332 24.1799 356.974 24.0455 356.531 24.0455C356.156 24.0455 355.829 24.1477 355.548 24.3523C355.272 24.553 355.056 24.8466 354.901 25.233C354.745 25.6193 354.668 26.0871 354.668 26.6364C354.668 27.1932 354.743 27.6667 354.895 28.0568C355.05 28.447 355.268 28.7443 355.548 28.9489C355.829 29.1534 356.156 29.2557 356.531 29.2557C356.808 29.2557 357.056 29.1989 357.276 29.0852C357.499 28.9716 357.683 28.8068 357.827 28.5909C357.974 28.3712 358.071 28.108 358.116 27.8011H360.401C360.363 28.4678 360.181 29.0549 359.855 29.5625C359.533 30.0663 359.088 30.4602 358.52 30.7443C357.952 31.0284 357.279 31.1705 356.503 31.1705ZM366.592 22.2727V24.0909H361.337V22.2727H366.592ZM362.53 20.1818H364.95V28.3182C364.95 28.5417 364.984 28.7159 365.053 28.8409C365.121 28.9621 365.215 29.0473 365.337 29.0966C365.462 29.1458 365.606 29.1705 365.768 29.1705C365.882 29.1705 365.996 29.161 366.109 29.142C366.223 29.1193 366.31 29.1023 366.371 29.0909L366.751 30.892C366.63 30.9299 366.46 30.9735 366.24 31.0227C366.02 31.0758 365.753 31.108 365.439 31.1193C364.856 31.142 364.344 31.0644 363.905 30.8864C363.469 30.7083 363.13 30.4318 362.888 30.0568C362.645 29.6818 362.526 29.2083 362.53 28.6364V20.1818ZM368.169 31V22.2727H370.589V31H368.169ZM369.385 21.1477C369.025 21.1477 368.716 21.0284 368.459 20.7898C368.205 20.5473 368.078 20.2576 368.078 19.9205C368.078 19.5871 368.205 19.3011 368.459 19.0625C368.716 18.8201 369.025 18.6989 369.385 18.6989C369.745 18.6989 370.052 18.8201 370.305 19.0625C370.563 19.3011 370.692 19.5871 370.692 19.9205C370.692 20.2576 370.563 20.5473 370.305 20.7898C370.052 21.0284 369.745 21.1477 369.385 21.1477ZM376.472 31.1705C375.589 31.1705 374.826 30.983 374.182 30.608C373.542 30.2292 373.047 29.7027 372.699 29.0284C372.35 28.3504 372.176 27.5644 372.176 26.6705C372.176 25.7689 372.35 24.9811 372.699 24.3068C373.047 23.6288 373.542 23.1023 374.182 22.7273C374.826 22.3485 375.589 22.1591 376.472 22.1591C377.354 22.1591 378.116 22.3485 378.756 22.7273C379.4 23.1023 379.896 23.6288 380.244 24.3068C380.593 24.9811 380.767 25.7689 380.767 26.6705C380.767 27.5644 380.593 28.3504 380.244 29.0284C379.896 29.7027 379.4 30.2292 378.756 30.608C378.116 30.983 377.354 31.1705 376.472 31.1705ZM376.483 29.2955C376.884 29.2955 377.22 29.1818 377.489 28.9545C377.758 28.7235 377.96 28.4091 378.097 28.0114C378.237 27.6136 378.307 27.161 378.307 26.6534C378.307 26.1458 378.237 25.6932 378.097 25.2955C377.96 24.8977 377.758 24.5833 377.489 24.3523C377.22 24.1212 376.884 24.0057 376.483 24.0057C376.078 24.0057 375.737 24.1212 375.46 24.3523C375.188 24.5833 374.981 24.8977 374.841 25.2955C374.705 25.6932 374.636 26.1458 374.636 26.6534C374.636 27.161 374.705 27.6136 374.841 28.0114C374.981 28.4091 375.188 28.7235 375.46 28.9545C375.737 29.1818 376.078 29.2955 376.483 29.2955ZM384.761 25.9545V31H382.341V22.2727H384.648V23.8125H384.75C384.943 23.3049 385.267 22.9034 385.722 22.608C386.176 22.3087 386.727 22.1591 387.375 22.1591C387.981 22.1591 388.509 22.2917 388.96 22.5568C389.411 22.822 389.761 23.2008 390.011 23.6932C390.261 24.1818 390.386 24.7652 390.386 25.4432V31H387.966V25.875C387.97 25.3409 387.833 24.9242 387.557 24.625C387.28 24.322 386.9 24.1705 386.415 24.1705C386.089 24.1705 385.801 24.2405 385.551 24.3807C385.305 24.5208 385.112 24.7254 384.972 24.9943C384.835 25.2595 384.765 25.5795 384.761 25.9545ZM295.605 50V38.3636H300.196C301.079 38.3636 301.83 38.5322 302.452 38.8693C303.073 39.2027 303.546 39.6667 303.872 40.2614C304.202 40.8523 304.366 41.5341 304.366 42.3068C304.366 43.0795 304.2 43.7614 303.866 44.3523C303.533 44.9432 303.05 45.4034 302.418 45.733C301.789 46.0625 301.027 46.2273 300.134 46.2273H297.207V44.2557H299.736C300.209 44.2557 300.599 44.1742 300.906 44.0114C301.217 43.8447 301.448 43.6155 301.599 43.3239C301.755 43.0284 301.832 42.6894 301.832 42.3068C301.832 41.9205 301.755 41.5833 301.599 41.2955C301.448 41.0038 301.217 40.7784 300.906 40.6193C300.596 40.4564 300.202 40.375 299.724 40.375H298.065V50H295.605ZM305.919 50V41.2727H308.266V42.7955H308.357C308.516 42.2538 308.783 41.8447 309.158 41.5682C309.533 41.2879 309.964 41.1477 310.453 41.1477C310.574 41.1477 310.705 41.1553 310.845 41.1705C310.985 41.1856 311.108 41.2064 311.214 41.233V43.3807C311.101 43.3466 310.944 43.3163 310.743 43.2898C310.542 43.2633 310.358 43.25 310.192 43.25C309.836 43.25 309.518 43.3277 309.237 43.483C308.961 43.6345 308.741 43.8466 308.578 44.1193C308.419 44.392 308.339 44.7064 308.339 45.0625V50H305.919ZM316.003 50.1705C315.12 50.1705 314.357 49.983 313.713 49.608C313.073 49.2292 312.579 48.7027 312.23 48.0284C311.882 47.3504 311.707 46.5644 311.707 45.6705C311.707 44.7689 311.882 43.9811 312.23 43.3068C312.579 42.6288 313.073 42.1023 313.713 41.7273C314.357 41.3485 315.12 41.1591 316.003 41.1591C316.885 41.1591 317.647 41.3485 318.287 41.7273C318.931 42.1023 319.427 42.6288 319.776 43.3068C320.124 43.9811 320.298 44.7689 320.298 45.6705C320.298 46.5644 320.124 47.3504 319.776 48.0284C319.427 48.7027 318.931 49.2292 318.287 49.608C317.647 49.983 316.885 50.1705 316.003 50.1705ZM316.014 48.2955C316.416 48.2955 316.751 48.1818 317.02 47.9545C317.289 47.7235 317.491 47.4091 317.628 47.0114C317.768 46.6136 317.838 46.161 317.838 45.6534C317.838 45.1458 317.768 44.6932 317.628 44.2955C317.491 43.8977 317.289 43.5833 317.02 43.3523C316.751 43.1212 316.416 43.0057 316.014 43.0057C315.609 43.0057 315.268 43.1212 314.991 43.3523C314.719 43.5833 314.512 43.8977 314.372 44.2955C314.236 44.6932 314.168 45.1458 314.168 45.6534C314.168 46.161 314.236 46.6136 314.372 47.0114C314.512 47.4091 314.719 47.7235 314.991 47.9545C315.268 48.1818 315.609 48.2955 316.014 48.2955ZM326.514 41.2727V43.0909H321.259V41.2727H326.514ZM322.452 39.1818H324.872V47.3182C324.872 47.5417 324.906 47.7159 324.974 47.8409C325.043 47.9621 325.137 48.0473 325.259 48.0966C325.384 48.1458 325.527 48.1705 325.69 48.1705C325.804 48.1705 325.918 48.161 326.031 48.142C326.145 48.1193 326.232 48.1023 326.293 48.0909L326.673 49.892C326.552 49.9299 326.382 49.9735 326.162 50.0227C325.942 50.0758 325.675 50.108 325.361 50.1193C324.777 50.142 324.266 50.0644 323.827 49.8864C323.391 49.7083 323.052 49.4318 322.81 49.0568C322.567 48.6818 322.448 48.2083 322.452 47.6364V39.1818ZM331.94 50.1705C331.058 50.1705 330.295 49.983 329.651 49.608C329.01 49.2292 328.516 48.7027 328.168 48.0284C327.819 47.3504 327.645 46.5644 327.645 45.6705C327.645 44.7689 327.819 43.9811 328.168 43.3068C328.516 42.6288 329.01 42.1023 329.651 41.7273C330.295 41.3485 331.058 41.1591 331.94 41.1591C332.823 41.1591 333.584 41.3485 334.224 41.7273C334.868 42.1023 335.365 42.6288 335.713 43.3068C336.062 43.9811 336.236 44.7689 336.236 45.6705C336.236 46.5644 336.062 47.3504 335.713 48.0284C335.365 48.7027 334.868 49.2292 334.224 49.608C333.584 49.983 332.823 50.1705 331.94 50.1705ZM331.952 48.2955C332.353 48.2955 332.688 48.1818 332.957 47.9545C333.226 47.7235 333.429 47.4091 333.565 47.0114C333.705 46.6136 333.776 46.161 333.776 45.6534C333.776 45.1458 333.705 44.6932 333.565 44.2955C333.429 43.8977 333.226 43.5833 332.957 43.3523C332.688 43.1212 332.353 43.0057 331.952 43.0057C331.546 43.0057 331.205 43.1212 330.929 43.3523C330.656 43.5833 330.45 43.8977 330.31 44.2955C330.173 44.6932 330.105 45.1458 330.105 45.6534C330.105 46.161 330.173 46.6136 330.31 47.0114C330.45 47.4091 330.656 47.7235 330.929 47.9545C331.205 48.1818 331.546 48.2955 331.952 48.2955ZM341.753 50.1705C340.859 50.1705 340.09 49.9811 339.446 49.6023C338.806 49.2197 338.313 48.6894 337.969 48.0114C337.628 47.3333 337.457 46.553 337.457 45.6705C337.457 44.7765 337.63 43.9924 337.974 43.3182C338.323 42.6402 338.817 42.1117 339.457 41.733C340.098 41.3504 340.859 41.1591 341.741 41.1591C342.503 41.1591 343.17 41.2973 343.741 41.5739C344.313 41.8504 344.766 42.2386 345.099 42.7386C345.433 43.2386 345.616 43.8258 345.651 44.5H343.366C343.302 44.0644 343.132 43.714 342.855 43.4489C342.582 43.1799 342.224 43.0455 341.781 43.0455C341.406 43.0455 341.079 43.1477 340.798 43.3523C340.522 43.553 340.306 43.8466 340.151 44.233C339.995 44.6193 339.918 45.0871 339.918 45.6364C339.918 46.1932 339.993 46.6667 340.145 47.0568C340.3 47.447 340.518 47.7443 340.798 47.9489C341.079 48.1534 341.406 48.2557 341.781 48.2557C342.058 48.2557 342.306 48.1989 342.526 48.0852C342.749 47.9716 342.933 47.8068 343.077 47.5909C343.224 47.3712 343.321 47.108 343.366 46.8011H345.651C345.613 47.4678 345.431 48.0549 345.105 48.5625C344.783 49.0663 344.338 49.4602 343.77 49.7443C343.202 50.0284 342.529 50.1705 341.753 50.1705ZM351.143 50.1705C350.261 50.1705 349.498 49.983 348.854 49.608C348.214 49.2292 347.719 48.7027 347.371 48.0284C347.022 47.3504 346.848 46.5644 346.848 45.6705C346.848 44.7689 347.022 43.9811 347.371 43.3068C347.719 42.6288 348.214 42.1023 348.854 41.7273C349.498 41.3485 350.261 41.1591 351.143 41.1591C352.026 41.1591 352.787 41.3485 353.428 41.7273C354.071 42.1023 354.568 42.6288 354.916 43.3068C355.265 43.9811 355.439 44.7689 355.439 45.6705C355.439 46.5644 355.265 47.3504 354.916 48.0284C354.568 48.7027 354.071 49.2292 353.428 49.608C352.787 49.983 352.026 50.1705 351.143 50.1705ZM351.155 48.2955C351.556 48.2955 351.892 48.1818 352.161 47.9545C352.429 47.7235 352.632 47.4091 352.768 47.0114C352.909 46.6136 352.979 46.161 352.979 45.6534C352.979 45.1458 352.909 44.6932 352.768 44.2955C352.632 43.8977 352.429 43.5833 352.161 43.3523C351.892 43.1212 351.556 43.0057 351.155 43.0057C350.75 43.0057 350.409 43.1212 350.132 43.3523C349.859 43.5833 349.653 43.8977 349.513 44.2955C349.376 44.6932 349.308 45.1458 349.308 45.6534C349.308 46.161 349.376 46.6136 349.513 47.0114C349.653 47.4091 349.859 47.7235 350.132 47.9545C350.409 48.1818 350.75 48.2955 351.155 48.2955ZM359.433 38.3636V50H357.013V38.3636H359.433Z" fill="white"/>
</svg>
