<svg width="229" height="291" viewBox="0 0 229 291" fill="none" xmlns="http://www.w3.org/2000/svg">
<path d="M2.0676 318.433C1.3106 317.496 0.425675 316.822 0.186938 316.002C-0.126437 314.924 0.048893 313.731 0.048893 312.587C0.0493675 241.138 -0.0451862 169.689 0.144802 98.2406C0.181206 84.6622 4.11839 71.6817 10.5199 59.2983C17.1232 46.5235 26.4073 35.5041 38.1195 26.0731C43.8357 21.4699 50.1261 17.4854 56.7795 14.0259C68.9206 7.71399 82.0823 3.57368 95.8887 1.42894C104.754 0.0515218 113.855 -0.343654 122.884 0.302489C138.183 1.39762 152.861 4.73145 166.506 11.0345C175.313 15.103 183.493 19.9928 190.98 25.8927C196.894 30.5539 202.202 35.6072 206.891 41.1811C215.633 51.5715 221.862 63.0286 225.692 75.5737C228.307 84.1319 229.012 92.7602 229 101.569C228.91 171.71 228.95 241.851 228.95 311.992V317.597C226.733 318.425 225.864 317.391 225.648 316.323C225.327 314.734 225.47 313.067 225.47 311.434C225.464 240.966 225.622 170.498 225.352 100.03C225.285 82.5708 219.779 66.2337 209.477 51.1113C202.708 41.1736 194.019 32.7809 184.176 25.4387C172.591 16.795 159.036 10.9639 144.392 7.33647C140.367 6.33944 136.172 5.85379 132.039 5.2218C127.725 4.5623 123.4 3.93371 119.058 3.44295C117.051 3.2162 114.969 3.14933 112.964 3.34897C95.8016 5.05808 78.7729 7.27293 63.4455 15.0421C56.1095 18.7605 49.1279 22.8212 42.5877 27.7C35.0135 33.3489 28.8374 39.8633 23.2364 46.9136C15.2308 56.9904 9.82492 68.1079 6.89528 80.1483C5.30967 86.6621 4.50837 93.234 4.51445 99.9274C4.57874 170.559 4.56314 241.19 4.50694 311.821C4.50559 313.951 5.64531 316.497 2.0676 318.433Z" fill="#92C08E"/>
<path d="M21.2913 319C19.415 317.862 18.2241 317.528 17.9889 316.91C17.5948 315.873 17.7729 314.655 17.7729 313.514C17.771 240.741 17.7391 167.968 17.8427 95.1945C17.8523 88.5593 19.8332 82.1713 21.9778 75.7586C24.5755 67.9916 28.5635 60.9174 33.48 54.266C40.481 44.7948 49.4329 36.938 60.1276 30.5748C69.3467 25.0896 79.2348 21.1037 89.9053 18.4582C101.609 15.5571 113.599 15.2651 125.503 16.1377C135.144 16.8443 144.506 19.197 153.511 22.7246C161.309 25.7799 168.738 29.402 175.193 34.132C185.005 41.3226 193.676 49.5912 199.819 59.6506C203.673 65.9616 207 72.4969 208.918 79.4682C210.554 85.4183 212.268 91.3949 212.269 97.6033C212.27 169.395 212.286 241.186 212.267 312.978C212.267 314.826 213.055 317.029 210.171 318.102C208.468 317.831 207.814 316.794 207.791 315.335C207.766 313.864 207.775 312.391 207.775 310.92C207.757 238.965 207.746 167.01 207.712 95.0551C207.708 88.3326 205.486 81.9839 203.223 75.6575C200.485 68.0026 196.34 60.9543 191.129 54.4114C182.614 43.7209 171.783 35.3525 158.749 29.1025C149.777 24.8005 140.236 21.9419 130.33 20.257C124.244 19.222 117.846 18.7643 111.676 19.1456C97.5182 20.0198 83.8125 22.8988 71.1456 28.8281C64.7952 31.8011 59.1381 35.6064 53.5816 39.6887C42.9876 47.4707 35.6264 57.2307 29.6972 67.9384C26.477 73.7543 24.9221 80.085 23.2538 86.4268C20.6165 96.4537 21.3456 106.507 21.3339 116.562C21.2517 181.649 21.2913 246.735 21.2913 311.822L21.2913 319Z" fill="#92C08E"/>
<path d="M193.36 318.386C192.547 317.521 191.424 316.834 191.199 315.967C190.834 314.565 191.041 313.043 191.041 311.572C191.038 242.071 191.095 172.569 190.988 103.067C190.967 90.0271 187.203 77.8694 179.327 66.6014C168.256 50.764 152.313 41.1711 132.224 36.7501C126.416 35.472 120.276 34.8128 114.296 34.8558C107.578 34.9043 100.88 35.8428 94.2709 37.4391C85.1059 39.6528 76.8336 43.2502 69.365 48.3047C61.8585 53.384 55.4908 59.4068 50.3128 66.4723C44.2133 74.797 41.4045 84.1018 39.2048 93.6129C38.7313 95.6599 39.0228 97.8514 39.0218 99.9762C39.0132 170.459 39.0111 240.941 39.0082 311.425C39.0082 312.733 39.1893 314.07 38.9376 315.34C38.7381 316.347 38.0042 317.269 37.5492 318.151C35.2575 317.892 34.5671 316.881 34.5188 315.411C34.4878 314.43 34.5023 313.448 34.5023 312.467C34.5033 241.984 34.5314 171.501 34.4675 101.019C34.4597 93.1091 36.7417 85.621 39.3558 78.2356C42.8132 68.4654 49.2828 60.0783 57.0874 52.6689C61.817 48.1799 67.6523 44.6589 73.5854 41.3364C82.424 36.3853 92.2657 33.8772 102.27 31.8686C106.344 31.0508 110.706 31.0267 114.918 31.1423C123.712 31.3829 132.463 32.2596 140.786 34.9607C152.315 38.7026 162.649 44.0867 171.431 51.8819C180.882 60.2699 187.592 69.9956 191.382 81.2585C193.199 86.6603 194.658 92.1057 194.646 97.919C194.51 169.71 194.566 241.501 194.537 313.293C194.537 314.854 195.157 316.563 193.36 318.386Z" fill="#92C08E"/>
<path d="M53.1151 318.567C52.6871 317.476 52.3269 316.918 52.2717 316.339C52.1623 315.201 52.2136 314.052 52.2136 312.907C52.2127 242.102 52.2504 171.297 52.1797 100.491C52.1672 88.1153 57.164 77.5008 65.2611 67.6535C72.8013 58.4821 83.1765 52.8819 94.7425 48.8984C99.2563 47.3442 104.335 46.7472 109.217 46.4327C115.997 45.9958 122.924 45.8534 129.541 47.4792C136.626 49.2207 143.454 51.6971 149.615 55.3539C152.2 56.8893 154.841 58.4334 157.076 60.3254C159.983 62.7872 162.715 65.4629 165.162 68.2891C170.82 74.8259 174.592 82.2131 176.463 90.2597C177.306 93.8883 177.794 97.6502 177.798 101.351C177.875 171.83 177.861 242.308 177.827 312.786C177.826 314.734 178.762 317.168 175.503 318.1C173.851 316.954 173.322 315.482 173.345 313.783C173.364 312.475 173.347 311.166 173.347 309.858C173.346 240.688 173.293 171.519 173.413 102.349C173.428 93.5342 171.309 85.2925 166.912 77.5093C162.978 70.5448 156.989 64.9839 150.103 60.2391C141.961 54.6286 132.562 51.7887 122.393 50.2713C106.244 47.8608 92.3511 52.4286 79.4741 60.305C68.7979 66.8367 62.4668 76.2751 58.3926 86.9324C57.3547 89.6473 56.9471 92.6394 56.8416 95.5204C56.6819 99.8623 56.6238 104.215 56.6673 108.568C56.6983 111.687 55.1938 115.046 56.0864 117.874C57.1659 121.298 55.4416 124.456 56.4185 127.836C57.167 130.423 56.1339 133.411 56.313 136.282C56.5357 139.845 56.1009 143.448 56.4911 147.03C56.5444 147.513 56.8329 148.045 56.6848 148.465C54.8616 153.656 58.5524 159.076 55.8269 164.217C58.0712 167.373 55.3351 170.732 56.4253 174.128C57.1901 176.509 56.3101 179.396 56.4292 182.107C56.5985 185.981 56.2509 189.869 56.524 193.786C56.708 196.414 56.2975 199.099 56.4243 201.806C56.6054 205.686 56.9549 209.72 56.4156 213.455C55.6275 218.92 58.473 224.399 55.8569 229.719C57.8068 232.902 54.9846 236.359 56.5812 239.587C56.8542 240.138 56.9287 241.028 56.6063 241.501C55.2877 243.434 56.6228 245.289 56.5095 247.11C56.3904 249.01 56.2065 250.753 56.4901 252.729C56.952 255.95 56.6092 259.36 55.9228 262.576C55.4697 264.696 56.919 266.411 56.2297 268.723C55.3245 271.758 56.3139 275.234 56.4959 278.52C56.5056 278.677 56.6702 278.85 56.6296 278.984C55.0069 284.353 58.2222 289.847 56.0341 295.264C55.5559 296.448 56.7157 298.072 56.6615 299.479C56.5356 302.77 55.7291 306.075 55.9712 309.329C56.1512 311.739 56.7612 314.093 55.5761 316.362C55.183 317.113 54.1994 317.624 53.1151 318.567Z" fill="#92C08E"/>
<path d="M87.964 318.067C87.478 317.212 86.8738 316.554 86.7431 315.829C86.5398 314.711 86.6472 313.548 86.6472 312.404C86.6454 242.434 86.6628 172.464 86.625 102.494C86.6201 92.7918 91.7109 85.7459 100.694 80.6751C109.07 75.9474 124.073 76.8995 131.421 82.2063C139.415 87.9802 143.396 95.1271 143.4 104.085C143.426 173.4 143.423 242.716 143.369 312.032C143.368 314.127 144.531 316.72 140.875 318.308C140.228 317.454 139.236 316.667 139.025 315.741C138.701 314.324 138.906 312.813 138.906 311.342C138.904 241.863 138.883 172.383 138.937 102.904C138.942 96.6923 136.405 91.6447 131.635 87.1787C120.367 76.6266 99.7625 80.7633 93.3075 92.4898C91.495 95.7831 91.1707 98.9865 91.1707 102.404C91.1649 152.592 91.1668 202.781 91.1668 252.969C91.1668 272.587 91.1678 292.204 91.1649 311.822C91.1639 314.084 91.6335 316.51 87.964 318.067Z" fill="#92C08E"/>
<path d="M158.041 318.018C157.572 317.216 156.825 316.441 156.689 315.59C156.46 314.147 156.611 312.655 156.611 311.183C156.61 242.009 156.632 172.836 156.59 103.661C156.582 90.7978 150.536 80.3143 138.957 72.739C131.787 68.0472 123.431 65.8103 114.174 65.9788C103.075 66.1798 93.5698 69.6159 85.9076 76.3298C77.9886 83.2687 73.4546 91.8593 73.4565 102.008C73.4701 171.836 73.4633 241.663 73.4614 311.491C73.4614 312.8 73.6531 314.141 73.3839 315.405C73.1738 316.394 72.3887 317.287 71.7631 318.39C69.6408 317.402 69.2023 316.002 68.997 314.574C68.8354 313.448 68.9525 312.289 68.9525 311.144C68.9525 242.624 68.9109 174.104 69.0087 105.585C69.0203 97.7727 70.2809 90.0459 74.8033 83.0754C81.5671 72.6481 91.6431 65.9172 104.809 63.1962C113.3 61.4417 121.887 62.1048 130.199 64.6068C138.036 66.9642 144.282 71.1941 149.703 76.7387C154.807 81.96 157.9 87.8673 159.436 94.4837C159.985 96.8455 160.106 99.3184 160.108 101.742C160.145 155.216 160.137 208.691 160.137 262.166C160.138 279.173 160.155 296.181 160.11 313.188C160.105 314.867 160.904 316.9 158.041 318.018Z" fill="#92C08E"/>
</svg>
