<svg width="204" height="68" viewBox="0 0 204 68" fill="none" xmlns="http://www.w3.org/2000/svg">
<path d="M203.535 49.6131C204.223 51.6575 204.247 52.5549 202.92 53.3341C196.356 57.1881 189.666 60.873 183.39 65.1594C179.491 67.8221 176.653 67.4746 172.88 64.9144C166.598 60.6531 159.862 57.0645 152.888 52.939C144.62 57.8458 136.14 62.8788 127.51 68C122.913 65.321 118.516 62.8088 114.171 60.2085C110.688 58.1254 107.249 55.967 103.834 53.7739C102.604 52.9839 101.562 52.9832 100.318 53.759C94.2921 57.5159 88.2429 61.2355 82.1699 64.9151C80.5392 65.9026 78.7951 66.7015 76.8802 67.7041C67.8752 63.8216 60.1503 57.4209 51.1168 52.9866C46.7777 55.5788 42.4422 58.1722 38.1024 60.7603C34.6157 62.8394 31.1031 64.8777 27.6442 67.0029C26.2602 67.8527 25.0221 67.7014 23.7256 66.9085C16.6911 62.6052 9.64511 58.3196 2.62014 53.9999C1.67622 53.4196 0.829978 52.6784 0 52.058C0.569593 50.0984 1.46126 49.8236 2.91101 50.7127C7.23381 53.3653 11.5899 55.9643 15.9276 58.5945C19.2814 60.628 22.6264 62.6772 26.0121 64.742C32.6743 60.6124 38.99 56.3491 45.6339 52.6818C51.7563 49.3022 50.5548 48.7396 56.8827 52.6893C63.3395 56.7198 69.9115 60.5669 76.7588 64.6904C85.0681 59.6458 93.4967 54.5294 102.069 49.3247C110.458 54.3841 118.905 59.4802 127.504 64.6666C135.986 59.5576 144.453 54.4574 152.976 49.3247C161.351 54.4208 169.58 59.428 178.062 64.5885C186.643 60.2018 194.551 54.2348 203.535 49.6131Z" fill="#92A5CD"/>
<path d="M178.259 43.2552C176.228 42.1068 174.007 40.9196 171.856 39.6191C166.321 36.2728 160.822 32.8689 155.3 29.5022C153.676 28.5126 152.281 28.3538 150.413 29.5491C143.897 33.718 137.199 37.6025 130.555 41.5692C129.578 42.1515 128.517 42.592 127.348 43.171C123.537 40.9773 119.671 38.8073 115.861 36.545C111.826 34.1497 107.816 31.7102 103.851 29.2008C102.438 28.3062 101.39 28.5635 100.027 29.3943C92.7692 33.815 85.4397 38.1191 78.1313 42.455C77.7014 42.7095 77.2288 42.8921 76.5968 43.1941C72.2476 40.6739 67.8507 38.1564 63.4845 35.5859C60.208 33.6562 56.9329 31.7184 53.7309 29.6692C51.9028 28.499 50.3318 28.5174 48.4718 29.6828C41.7031 33.9264 34.8645 38.058 28.0335 42.2011C27.293 42.6505 26.4312 42.8995 25.5958 43.2546C17.7897 38.5786 10.067 33.9657 2.36525 29.3176C1.61799 28.8663 0.839555 28.2981 0.387278 27.5861C0.0841592 27.1076 0.329584 26.2795 0.329584 24.9803C9.70617 29.3305 17.3198 35.5791 26.1017 40.0209C34.5276 34.8963 42.9541 29.7711 51.3996 24.6342C59.8974 29.8077 68.2258 34.8786 76.832 40.118C85.1569 35.0049 93.5605 29.843 102.117 24.5873C110.511 29.7228 118.829 34.8121 127.499 40.1173C135.759 35.0707 144.174 29.9298 152.9 24.5982C161.121 29.64 169.433 34.7375 178.058 40.0277C186.559 35.5703 194.61 29.8626 203.309 25.04C204.007 27.5983 203.844 28.0761 202.114 29.1771C200.082 30.4708 198.058 31.7801 195.98 32.9951C190.182 36.3841 184.359 39.7277 178.259 43.2552Z" fill="#92A5CD"/>
<path d="M76.754 15.4194C85.1976 10.2805 93.5339 5.20743 102.087 0.00207658C110.532 5.15382 118.956 10.2927 127.489 15.4988C135.855 10.3816 144.178 5.29024 152.827 0C161.193 5.0669 169.645 10.1848 178.228 15.3827C182.528 12.8299 186.727 10.2492 191.01 7.81996C195.137 5.47828 198.79 2.23923 203.47 0.682859C204.709 2.98522 203.218 3.85736 202.008 4.64002C199.774 6.08578 197.428 7.35911 195.133 8.70983C190.21 11.6081 185.293 14.5173 180.364 17.4033C179.605 17.8473 178.793 18.1975 178.072 18.5572C170.305 13.9145 162.687 9.35735 155.066 4.80764C153.532 3.89266 152.227 3.84518 150.508 4.90674C142.952 9.57456 135.255 14.0136 127.436 18.6367C119.965 14.1358 112.469 9.64039 104.998 5.10427C103.091 3.94631 101.585 3.82754 99.4522 5.18505C92.4978 9.61396 85.3033 13.6668 78.1956 17.8548C77.7637 18.1093 77.2844 18.283 76.7229 18.5423C72.8998 16.3561 69.0259 14.1989 65.211 11.9421C61.1723 9.55215 57.1485 7.13171 53.2041 4.59048C51.5882 3.54923 50.2728 4.11191 48.943 4.88437C46.6402 6.22287 44.4147 7.69302 42.1247 9.05534C36.8872 12.1715 31.6308 15.2544 26.1233 18.5036C25.1035 18.0129 23.8076 17.5024 22.6244 16.802C15.9615 12.8543 9.31355 8.88155 2.69407 4.86126C1.74746 4.2864 0.919475 3.46711 0.177648 2.63495C-0.0142439 2.41911 0.224433 1.66637 0.459743 1.27814C0.599422 1.04665 1.18737 0.8668 1.45386 0.971322C2.63304 1.43287 3.83662 1.89579 4.90936 2.55624C10.6385 6.08101 16.3257 9.67502 22.0399 13.2229C23.2266 13.9593 24.4695 14.6041 25.8535 15.3861C29.6467 13.117 33.4635 10.8554 37.2588 8.55779C41.1659 6.193 45.0921 3.85604 48.9301 1.38262C50.7854 0.18734 52.2425 0.382839 54.0828 1.55641C61.1417 6.05927 68.3132 10.3857 75.448 14.7691C75.8705 15.0284 76.3377 15.2137 76.754 15.4194Z" fill="#92A5CD"/>
</svg>
