<svg width="68" height="204" viewBox="0 0 68 204" fill="none" xmlns="http://www.w3.org/2000/svg">
<g clip-path="url(#clip0_16_2)">
<path d="M18.3869 203.535C16.3425 204.223 15.4451 204.247 14.6659 202.92C10.8119 196.356 7.12699 189.666 2.84059 183.39C0.177891 179.491 0.525394 176.653 3.08559 172.88C7.34689 166.598 10.9355 159.862 15.061 152.888C10.1542 144.62 5.12119 136.14 -7.62939e-06 127.51C2.67899 122.913 5.19119 118.516 7.79149 114.171C9.87459 110.688 12.033 107.249 14.2261 103.834C15.0161 102.604 15.0168 101.562 14.241 100.318C10.4841 94.2921 6.76449 88.2429 3.08489 82.1699C2.09739 80.5392 1.29849 78.7951 0.295891 76.8802C4.17839 67.8752 10.5791 60.1503 15.0134 51.1168C12.4212 46.7777 9.82779 42.4422 7.23969 38.1024C5.16059 34.6157 3.12229 31.1031 0.997093 27.6442C0.147293 26.2602 0.298592 25.0221 1.09149 23.7256C5.39479 16.6911 9.68039 9.64511 14.0001 2.62014C14.5804 1.67622 15.3216 0.829978 15.942 0C17.9016 0.569593 18.1764 1.46126 17.2873 2.91101C14.6347 7.23381 12.0357 11.5899 9.40549 15.9276C7.37199 19.2814 5.3228 22.6264 3.258 26.0121C7.3876 32.6743 11.6509 38.99 15.3182 45.6339C18.6978 51.7563 19.2604 50.5548 15.3107 56.8827C11.2802 63.3395 7.43309 69.9115 3.30959 76.7588C8.35419 85.0681 13.4706 93.4967 18.6753 102.069C13.6159 110.458 8.51979 118.905 3.33339 127.504C8.44239 135.986 13.5426 144.453 18.6753 152.976C13.5792 161.351 8.57199 169.58 3.41149 178.062C7.79819 186.643 13.7652 194.551 18.3869 203.535Z" fill="#ECFF6F" fill-opacity="0.6"/>
<path d="M24.7447 178.259C25.8931 176.228 27.0803 174.007 28.3808 171.856C31.7271 166.321 35.131 160.822 38.4977 155.3C39.4873 153.676 39.6461 152.281 38.4508 150.413C34.2819 143.897 30.3974 137.199 26.4307 130.555C25.8484 129.578 25.4079 128.517 24.8289 127.348C27.0226 123.537 29.1926 119.671 31.4549 115.861C33.8502 111.826 36.2897 107.816 38.7991 103.851C39.6937 102.438 39.4364 101.39 38.6056 100.027C34.1849 92.7692 29.8808 85.4397 25.5449 78.1313C25.2904 77.7014 25.1078 77.2288 24.8058 76.5968C27.326 72.2476 29.8435 67.8507 32.414 63.4845C34.3437 60.208 36.2815 56.9329 38.3307 53.7309C39.5009 51.9028 39.4825 50.3318 38.3171 48.4718C34.0735 41.7031 29.9419 34.8645 25.7988 28.0335C25.3494 27.293 25.1004 26.4312 24.7453 25.5958C29.4213 17.7897 34.0342 10.067 38.6823 2.36525C39.1336 1.61799 39.7018 0.839551 40.4138 0.387274C40.8923 0.0841553 41.7204 0.32958 43.0196 0.32958C38.6694 9.70617 32.4208 17.3198 27.979 26.1017C33.1036 34.5276 38.2288 42.9541 43.3657 51.3996C38.1922 59.8974 33.1213 68.2258 27.8819 76.832C32.995 85.1569 38.1569 93.5605 43.4126 102.117C38.2771 110.511 33.1878 118.829 27.8826 127.499C32.9292 135.759 38.0701 144.174 43.4017 152.9C38.3599 161.121 33.2624 169.433 27.9722 178.058C32.4296 186.559 38.1373 194.61 42.9599 203.309C40.4016 204.007 39.9238 203.844 38.8228 202.114C37.5291 200.082 36.2198 198.058 35.0048 195.98C31.6158 190.182 28.2722 184.359 24.7447 178.259Z" fill="#ECFF6F" fill-opacity="0.6"/>
<path d="M52.5806 76.754C57.7195 85.1976 62.7926 93.5339 67.9979 102.087C62.8462 110.532 57.7073 118.956 52.5012 127.489C57.6184 135.855 62.7098 144.178 68 152.827C62.9331 161.193 57.8152 169.645 52.6173 178.228C55.1701 182.528 57.7508 186.727 60.18 191.01C62.5217 195.137 65.7608 198.79 67.3171 203.47C65.0148 204.709 64.1426 203.218 63.36 202.008C61.9142 199.774 60.6409 197.428 59.2902 195.133C56.3919 190.21 53.4827 185.293 50.5967 180.364C50.1527 179.605 49.8025 178.793 49.4428 178.072C54.0855 170.305 58.6427 162.687 63.1924 155.066C64.1073 153.532 64.1548 152.227 63.0933 150.508C58.4254 142.952 53.9864 135.255 49.3633 127.436C53.8642 119.965 58.3596 112.469 62.8957 104.998C64.0537 103.091 64.1725 101.585 62.8149 99.4522C58.386 92.4978 54.3332 85.3033 50.1452 78.1956C49.8907 77.7637 49.717 77.2844 49.4577 76.7229C51.6439 72.8998 53.8011 69.0259 56.0579 65.211C58.4479 61.1723 60.8683 57.1485 63.4095 53.2041C64.4508 51.5882 63.8881 50.2728 63.1156 48.943C61.7771 46.6402 60.307 44.4147 58.9447 42.1247C55.8285 36.8872 52.7456 31.6308 49.4964 26.1233C49.9871 25.1035 50.4976 23.8076 51.198 22.6244C55.1457 15.9615 59.1185 9.31357 63.1387 2.69409C63.7136 1.74748 64.5329 0.919493 65.3651 0.177666C65.5809 -0.0142259 66.3336 0.224451 66.7219 0.459761C66.9534 0.59944 67.1332 1.18739 67.0287 1.45388C66.5671 2.63306 66.1042 3.83664 65.4438 4.90938C61.919 10.6385 58.325 16.3257 54.7771 22.0399C54.0407 23.2266 53.3959 24.4695 52.6139 25.8535C54.883 29.6467 57.1446 33.4635 59.4422 37.2588C61.807 41.1659 64.144 45.0921 66.6174 48.9301C67.8127 50.7854 67.6172 52.2425 66.4436 54.0828C61.9407 61.1417 57.6143 68.3132 53.2309 75.448C52.9716 75.8705 52.7863 76.3377 52.5806 76.754Z" fill="#ECFF6F" fill-opacity="0.6"/>
</g>
<defs>
<clipPath id="clip0_16_2">
<rect width="204" height="68" fill="white" transform="matrix(0 1 -1 0 68 0)"/>
</clipPath>
</defs>
</svg>
