<svg width="68" height="204" viewBox="0 0 68 204" fill="none" xmlns="http://www.w3.org/2000/svg">
    <g clip-path="url(#clip0_2205_3)">
        <mask id="mask0_2205_3" style="mask-type:luminance" maskUnits="userSpaceOnUse" x="0" y="0" width="68" height="204">
            <path d="M68 204V0H0V204H68Z" fill="white"/>
        </mask>
        <g mask="url(#mask0_2205_3)">
            <path d="M18.3869 203.535C16.3425 204.223 15.4451 204.247 14.6659 202.92C10.8119 196.356 7.127 189.666 2.8406 183.39C0.177899 179.491 0.525402 176.653 3.0856 172.88C7.3469 166.598 10.9355 159.862 15.061 152.888C10.1542 144.62 5.1212 136.14 0 127.51C2.679 122.913 5.1912 118.516 7.7915 114.171C9.8746 110.688 12.033 107.249 14.2261 103.834C15.0161 102.604 15.0168 101.562 14.241 100.318C10.4841 94.2921 6.7645 88.2429 3.0849 82.1699C2.0974 80.5392 1.2985 78.7951 0.295899 76.8802C4.1784 67.8752 10.5791 60.1503 15.0134 51.1168C12.4212 46.7777 9.8278 42.4422 7.2397 38.1024C5.1606 34.6157 3.1223 31.1031 0.997101 27.6442C0.147301 26.2602 0.2986 25.0221 1.0915 23.7256C5.3948 16.6911 9.6804 9.64511 14.0001 2.62014C14.5804 1.67622 15.3216 0.829978 15.942 0C17.9016 0.569593 18.1764 1.46126 17.2873 2.91101C14.6347 7.23381 12.0357 11.5899 9.4055 15.9276C7.372 19.2814 5.32281 22.6264 3.25801 26.0121C7.38761 32.6743 11.6509 38.99 15.3182 45.6339C18.6978 51.7563 19.2604 50.5548 15.3107 56.8827C11.2802 63.3395 7.4331 69.9115 3.3096 76.7588C8.3542 85.0681 13.4706 93.4967 18.6753 102.069C13.6159 110.458 8.5198 118.905 3.3334 127.504C8.4424 135.986 13.5426 144.453 18.6753 152.976C13.5792 161.351 8.572 169.58 3.4115 178.062C7.7982 186.643 13.7652 194.551 18.3869 203.535Z" fill="#72F40F"/>
            <path d="M24.7446 178.259C25.893 176.228 27.0802 174.007 28.3807 171.856C31.727 166.321 35.1309 160.822 38.4976 155.3C39.4872 153.676 39.646 152.281 38.4507 150.413C34.2818 143.897 30.3973 137.199 26.4306 130.555C25.8483 129.578 25.4078 128.517 24.8288 127.348C27.0225 123.537 29.1925 119.671 31.4548 115.861C33.8501 111.826 36.2896 107.816 38.799 103.851C39.6936 102.438 39.4363 101.39 38.6055 100.027C34.1848 92.7688 29.8807 85.4393 25.5448 78.1309C25.2903 77.701 25.1077 77.2284 24.8057 76.5964C27.3259 72.2472 29.8434 67.8503 32.4139 63.4841C34.3436 60.2076 36.2814 56.9325 38.3306 53.7305C39.5008 51.9024 39.4824 50.3314 38.317 48.4714C34.0734 41.7027 29.9418 34.8641 25.7987 28.0331C25.3493 27.2926 25.1003 26.4308 24.7452 25.5954C29.4212 17.7893 34.0341 10.0666 38.6822 2.36482C39.1335 1.61756 39.7017 0.839124 40.4137 0.386847C40.8922 0.0837281 41.7203 0.329153 43.0195 0.329153C38.6693 9.70574 32.4207 17.3194 27.9789 26.1013C33.1035 34.5272 38.2287 42.9537 43.3656 51.3992C38.1921 59.897 33.1212 68.2254 27.8818 76.8316C32.9949 85.1565 38.1568 93.5601 43.4125 102.117C38.277 110.511 33.1877 118.829 27.8825 127.499C32.9291 135.759 38.07 144.174 43.4016 152.9C38.3598 161.121 33.2623 169.433 27.9721 178.058C32.4295 186.559 38.1372 194.61 42.9598 203.309C40.4015 204.007 39.9237 203.844 38.8227 202.114C37.529 200.082 36.2197 198.058 35.0047 195.98C31.6157 190.182 28.2721 184.359 24.7446 178.259Z" fill="#72F40F"/>
            <path d="M52.5806 76.7538C57.7195 85.1974 62.7926 93.5337 67.9979 102.087C62.8462 110.532 57.7073 118.956 52.5012 127.489C57.6184 135.855 62.7098 144.178 68 152.827C62.9331 161.193 57.8152 169.645 52.6173 178.228C55.1701 182.528 57.7508 186.727 60.18 191.01C62.5217 195.137 65.7608 198.79 67.3171 203.47C65.0148 204.709 64.1426 203.218 63.36 202.008C61.9142 199.774 60.6409 197.428 59.2902 195.133C56.3919 190.21 53.4827 185.293 50.5967 180.364C50.1527 179.605 49.8025 178.793 49.4428 178.072C54.0855 170.305 58.6427 162.687 63.1924 155.066C64.1073 153.532 64.1548 152.227 63.0933 150.508C58.4254 142.952 53.9864 135.255 49.3633 127.436C53.8642 119.965 58.3596 112.469 62.8957 104.998C64.0537 103.091 64.1725 101.585 62.8149 99.452C58.386 92.4976 54.3332 85.3031 50.1452 78.1954C49.8907 77.7635 49.717 77.2842 49.4577 76.7227C51.6439 72.8996 53.8011 69.0257 56.0579 65.2108C58.4479 61.1721 60.8683 57.1483 63.4095 53.2039C64.4508 51.588 63.8881 50.2726 63.1156 48.9428C61.7771 46.64 60.307 44.4145 58.9447 42.1245C55.8285 36.887 52.7456 31.6306 49.4964 26.1231C49.9871 25.1033 50.4976 23.8074 51.198 22.6242C55.1457 15.9613 59.1185 9.31333 63.1387 2.69385C63.7136 1.74724 64.5329 0.919249 65.3651 0.177422C65.5809 -0.01447 66.3336 0.224207 66.7219 0.459517C66.9534 0.599196 67.1332 1.18715 67.0287 1.45364C66.5671 2.63282 66.1042 3.8364 65.4438 4.90914C61.919 10.6383 58.325 16.3255 54.7771 22.0397C54.0407 23.2264 53.3959 24.4693 52.6139 25.8533C54.883 29.6465 57.1446 33.4633 59.4422 37.2586C61.807 41.1657 64.144 45.0919 66.6174 48.9299C67.8127 50.7852 67.6172 52.2423 66.4436 54.0826C61.9407 61.1415 57.6143 68.313 53.2309 75.4478C52.9716 75.8703 52.7863 76.3375 52.5806 76.7538Z" fill="#72F40F"/>
        </g>
    </g>
    <defs>
        <clipPath id="clip0_2205_3">
            <rect width="68" height="204" fill="white"/>
        </clipPath>
    </defs>
</svg>
