<svg width="275" height="92" viewBox="0 0 275 92" fill="none" xmlns="http://www.w3.org/2000/svg">
<path d="M274.245 66.7832C275.173 69.5351 275.205 70.743 273.417 71.7919C264.571 76.9796 255.558 81.9399 247.101 87.7096C241.848 91.2939 238.024 90.8261 232.94 87.3798C224.476 81.6438 215.399 76.8133 206.003 71.2601C194.862 77.8649 183.437 84.6398 171.808 91.5333C165.615 87.9271 159.689 84.5456 153.835 81.0453C149.142 78.2413 144.508 75.3359 139.907 72.3839C138.25 71.3204 136.845 71.3195 135.169 72.3638C127.05 77.4209 118.899 82.4278 110.717 87.3808C108.519 88.7101 106.169 89.7855 103.589 91.135C91.4556 85.9088 81.0471 77.293 68.8753 71.3241C63.0288 74.8133 57.1869 78.3044 51.3395 81.7881C46.6415 84.5867 41.9086 87.3305 37.2481 90.1911C35.3833 91.3351 33.715 91.1313 31.9681 90.0641C22.4897 84.2715 12.9959 78.5027 3.5304 72.6881C2.25855 71.907 1.11832 70.9092 0 70.0742C0.767475 67.4364 1.96891 67.0664 3.92231 68.2632C9.7469 71.8339 15.6163 75.3323 21.461 78.8727C25.9799 81.61 30.487 84.3684 35.0489 87.1478C44.0256 81.5891 52.5354 75.8503 61.4875 70.9138C69.7369 66.3647 68.118 65.6073 76.6443 70.9239C85.3442 76.3492 94.1994 81.5278 103.426 87.0783C114.622 80.2879 125.978 73.4008 137.529 66.3948C148.832 73.2053 160.214 80.065 171.8 87.0463C183.229 80.1692 194.638 73.3039 206.121 66.3948C217.405 73.2546 228.494 79.9947 239.922 86.9412C251.484 81.0363 262.139 73.0043 274.245 66.7832Z" fill="#E5951A"/>
<path d="M240.188 58.2249C237.451 56.679 234.459 55.081 231.56 53.3304C224.103 48.826 216.693 44.2441 209.252 39.7123C207.065 38.3802 205.185 38.1664 202.668 39.7754C193.888 45.387 184.864 50.6159 175.911 55.9554C174.595 56.7393 173.165 57.3322 171.59 58.1116C166.454 55.1586 161.246 52.2376 156.112 49.1925C150.675 45.9681 145.272 42.6844 139.93 39.3066C138.026 38.1024 136.613 38.4487 134.777 39.567C124.998 45.5177 115.122 51.3112 105.275 57.1477C104.696 57.4903 104.059 57.7361 103.207 58.1426C97.347 54.7503 91.4227 51.3615 85.5396 47.9014C81.1248 45.3039 76.7118 42.6954 72.3975 39.9371C69.9343 38.3619 67.8175 38.3866 65.3113 39.9553C56.1911 45.6675 46.9767 51.229 37.7725 56.806C36.7748 57.4108 35.6137 57.7461 34.4881 58.224C23.97 51.9298 13.5643 45.7205 3.18696 39.4637C2.18009 38.8562 1.13122 38.0915 0.521821 37.133C0.113397 36.4889 0.444084 35.3742 0.444084 33.6254C13.0782 39.4811 23.3368 47.8923 35.1696 53.8713C46.5228 46.9731 57.8767 40.0742 69.2563 33.1595C80.7063 40.1235 91.9281 46.9494 103.524 54.002C114.741 47.1193 126.064 40.171 137.593 33.0965C148.903 40.0092 160.111 46.8599 171.794 54.001C182.923 47.2079 194.262 40.2878 206.019 33.1111C217.096 39.8978 228.295 46.7594 239.917 53.8804C251.372 47.8804 262.22 40.1975 273.94 33.7059C274.88 37.1495 274.661 37.7927 272.33 39.2747C269.592 41.016 266.866 42.7786 264.065 44.414C256.254 48.9759 248.407 53.4766 240.188 58.2249Z" fill="#E5951A"/>
<path d="M103.419 20.7557C114.796 13.8383 126.028 7.00961 137.553 0.00279524C148.932 6.93745 160.283 13.8548 171.78 20.8626C183.053 13.9745 194.267 7.12108 205.921 0C217.194 6.82045 228.581 13.7095 240.146 20.7063C245.94 17.27 251.597 13.7962 257.368 10.5263C262.93 7.37419 267.851 3.01418 274.157 0.919181C275.827 4.01834 273.818 5.19231 272.188 6.24584C269.177 8.19193 266.017 9.90594 262.924 11.7241C256.291 15.6255 249.666 19.5414 243.023 23.4263C242.002 24.0238 240.907 24.4953 239.935 24.9795C229.47 18.73 219.206 12.5957 208.937 6.47146C206.871 5.23982 205.112 5.17592 202.796 6.60485C192.615 12.8881 182.243 18.8634 171.709 25.0864C161.642 19.0279 151.542 12.9767 141.476 6.87074C138.906 5.31205 136.876 5.15216 134.003 6.97949C124.632 12.9411 114.938 18.3966 105.361 24.0339C104.779 24.3765 104.134 24.6104 103.377 24.9594C98.2259 22.0165 93.0061 19.1129 87.8659 16.075C82.4241 12.8579 77.0024 9.59984 71.6877 6.17915C69.5104 4.77754 67.738 5.53495 65.9463 6.57475C62.8435 8.37647 59.8447 10.3554 56.7593 12.1892C49.7022 16.3838 42.6196 20.5336 35.1988 24.9073C33.8247 24.2467 32.0786 23.5596 30.4843 22.6168C21.5067 17.3029 12.5492 11.9553 3.63001 6.54363C2.35454 5.76983 1.23891 4.667 0.239364 3.54685C-0.0191924 3.25631 0.302403 2.24306 0.619461 1.72048C0.807666 1.40887 1.59988 1.16678 1.95895 1.30748C3.54778 1.92876 5.1695 2.55188 6.61491 3.44089C14.3344 8.18552 21.9974 13.0233 29.6968 17.799C31.2957 18.7904 32.9704 19.6583 34.8352 20.7109C39.9462 17.6565 45.0891 14.6122 50.2028 11.5195C55.4673 8.33626 60.7576 5.19054 65.9289 1.86112C68.4286 0.252175 70.392 0.515332 72.8717 2.09505C82.3829 8.15624 92.0458 13.9799 101.659 19.8804C102.229 20.2294 102.858 20.4788 103.419 20.7557Z" fill="#E5951A"/>
</svg>
