<svg width="245" height="97" viewBox="0 0 245 97" fill="rgb(255, 250, 226)" xmlns="http://www.w3.org/2000/svg">
<path d="M1.33313 47.4131L0.333127 47.4112L0.329201 49.4112L1.3292 49.4131L1.33313 47.4131ZM243.535 49.8886C244.087 49.8897 244.535 49.4429 244.536 48.8906C244.538 48.3383 244.091 47.8897 243.538 47.8886L243.535 49.8886ZM197.761 1.43182L197.768 0.431844L195.768 0.41724L195.761 1.41721L197.761 1.43182ZM242.581 49.286C243.064 49.5539 243.673 49.3797 243.941 48.8968C244.209 48.4139 244.035 47.8052 243.552 47.5372L242.581 49.286ZM243.429 49.8154C243.943 49.6128 244.195 49.032 243.993 48.5182C243.79 48.0045 243.209 47.7523 242.696 47.9549L243.429 49.8154ZM195.075 95.1836L195.068 96.1836L197.068 96.1982L197.075 95.1982L195.075 95.1836ZM1.3292 49.4131L243.054 49.8877L243.058 47.8877L1.33313 47.4131L1.3292 49.4131ZM243.054 49.8877L243.535 49.8886L243.538 47.8886L243.058 47.8877L243.054 49.8877ZM195.761 1.41721C195.719 7.06562 198.769 12.8792 203.151 18.3377C207.552 23.8208 213.411 29.0854 219.238 33.6564C225.071 38.2319 230.904 42.1371 235.275 44.8972C237.462 46.2779 239.286 47.3734 240.564 48.1244C241.203 48.5 241.705 48.7895 242.049 48.9855C242.221 49.0836 242.353 49.1582 242.443 49.2086C242.488 49.2338 242.522 49.2529 242.545 49.2658C242.557 49.2723 242.565 49.2772 242.571 49.2806C242.574 49.2823 242.577 49.2835 242.578 49.2844C242.579 49.2849 242.58 49.2853 242.58 49.2855C242.581 49.2858 242.581 49.286 243.066 48.4116C243.552 47.5372 243.552 47.5372 243.551 47.5371C243.551 47.5369 243.551 47.5367 243.55 47.5363C243.549 47.5357 243.547 47.5346 243.544 47.5332C243.539 47.5302 243.531 47.5258 243.52 47.5198C243.499 47.5078 243.466 47.4896 243.423 47.4653C243.337 47.4168 243.208 47.3441 243.04 47.2481C242.703 47.0562 242.208 46.771 241.577 46.4002C240.315 45.6584 238.51 44.5739 236.343 43.2061C232.008 40.4692 226.236 36.6035 220.473 32.0827C214.704 27.5574 208.977 22.4005 204.71 17.0857C200.424 11.7462 197.724 6.38541 197.761 1.43182L195.761 1.41721ZM243.063 48.8851C242.696 47.9549 242.696 47.9549 242.696 47.9549C242.696 47.9549 242.696 47.9549 242.696 47.9549C242.696 47.9549 242.696 47.9549 242.696 47.9549C242.696 47.9549 242.696 47.9549 242.696 47.9549C242.696 47.9549 242.696 47.9549 242.696 47.9549C242.696 47.9549 242.695 47.9549 242.695 47.955C242.695 47.955 242.695 47.955 242.695 47.955C242.695 47.9551 242.695 47.9552 242.695 47.9553C242.694 47.9555 242.694 47.9557 242.693 47.956C242.691 47.9566 242.689 47.9573 242.687 47.9583L243.425 49.817C243.427 49.8163 243.428 49.8158 243.429 49.8156C243.429 49.8154 243.43 49.8154 243.43 49.8153C243.43 49.8153 243.43 49.8153 243.43 49.8153C243.43 49.8153 243.43 49.8153 243.43 49.8154C243.43 49.8154 243.43 49.8154 243.43 49.8154C243.429 49.8154 243.429 49.8154 243.429 49.8154C243.429 49.8154 243.429 49.8154 243.429 49.8154C243.429 49.8154 243.429 49.8154 243.429 49.8154C243.429 49.8154 243.429 49.8154 243.429 49.8154C243.429 49.8154 243.429 49.8154 243.063 48.8851ZM242.687 47.9584C242.35 48.0924 230.573 52.7987 218.837 60.9568C212.97 65.036 207.074 70.0043 202.624 75.7287C198.173 81.4547 195.128 87.9924 195.075 95.1836L197.075 95.1982C197.124 88.5839 199.924 82.4619 204.203 76.9561C208.484 71.4487 214.204 66.6133 219.979 62.599C231.528 54.5701 243.141 49.9303 243.426 49.8169L242.687 47.9584Z" fill="white"/>
</svg>
