<svg width="129" height="130" viewBox="0 0 129 130" fill="none" xmlns="http://www.w3.org/2000/svg">
<path d="M1.56329 125.565L0.149074 126.979L2.9775 129.808L4.39171 128.393L1.56329 125.565ZM127.978 4.80691C128.759 4.02586 128.759 2.75953 127.978 1.97848C127.197 1.19743 125.931 1.19743 125.15 1.97848L127.978 4.80691ZM32.9117 1.97847L31.4975 0.564252L28.6691 3.39268L30.0833 4.80689L32.9117 1.97847ZM126.173 5.31142C127.233 4.99973 127.839 3.88802 127.527 2.82834C127.216 1.76866 126.104 1.16229 125.044 1.47398L126.173 5.31142ZM124.672 99.3961L126.086 100.81L128.914 97.9819L127.5 96.5677L124.672 99.3961ZM4.39171 128.393L127.5 5.28502L124.672 2.4566L1.56329 125.565L4.39171 128.393ZM127.5 5.28502L127.978 4.80691L125.15 1.97848L124.672 2.4566L127.5 5.28502ZM30.0833 4.80689C35.9221 10.6457 45.0458 13.3881 55.0232 14.4062C65.0634 15.4308 76.3283 14.744 86.8286 13.3977C97.3437 12.0495 107.173 10.0292 114.367 8.34821C117.966 7.5072 120.911 6.74992 122.959 6.20209C123.983 5.92815 124.783 5.7065 125.329 5.55284C125.602 5.47601 125.811 5.41617 125.953 5.37528C126.024 5.35484 126.078 5.33913 126.115 5.3284C126.133 5.32304 126.147 5.31893 126.157 5.31609C126.162 5.31467 126.166 5.31356 126.168 5.31279C126.17 5.3124 126.171 5.31206 126.171 5.31186C126.172 5.3116 126.173 5.31142 125.609 3.3927C125.044 1.47398 125.044 1.47397 125.044 1.47403C125.044 1.47416 125.043 1.47431 125.042 1.47457C125.04 1.47509 125.038 1.47593 125.034 1.47709C125.026 1.47941 125.013 1.48301 124.997 1.48784C124.964 1.49752 124.913 1.51217 124.846 1.53154C124.711 1.57029 124.51 1.62795 124.245 1.70256C123.715 1.85179 122.931 2.0688 121.925 2.33796C119.913 2.87634 117.009 3.62304 113.457 4.45312C106.347 6.1143 96.6589 8.10459 86.3199 9.43017C75.9662 10.7577 65.0402 11.4077 55.4293 10.4269C45.7555 9.43975 37.7679 6.83464 32.9117 1.97847L30.0833 4.80689ZM126.086 3.87081C124.245 3.0894 124.245 3.09012 124.244 3.09108C124.244 3.09174 124.243 3.09296 124.243 3.09427C124.242 3.0969 124.24 3.10053 124.238 3.10516C124.234 3.11443 124.229 3.12768 124.222 3.14488C124.207 3.17927 124.186 3.22944 124.159 3.29498C124.105 3.42605 124.025 3.61864 123.924 3.86957C123.721 4.37138 123.429 5.10666 123.068 6.04992C122.346 7.93616 121.35 10.6558 120.243 14.0049C118.033 20.6978 115.374 29.9307 113.6 40.0656C111.828 50.1881 110.922 61.2939 112.272 71.7039C113.623 82.1175 117.25 91.9748 124.672 99.3961L127.5 96.5677C120.9 89.9679 117.518 81.0507 116.239 71.1895C114.96 61.3248 115.807 50.6554 117.54 40.7554C119.271 30.8678 121.871 21.8309 124.042 15.2596C125.126 11.9766 126.101 9.31547 126.804 7.47903C127.155 6.56096 127.438 5.8494 127.632 5.36972C127.729 5.12989 127.804 4.94807 127.854 4.82742C127.879 4.76709 127.898 4.72206 127.91 4.69273C127.916 4.67807 127.921 4.66732 127.923 4.66055C127.925 4.65717 127.926 4.65478 127.926 4.65339C127.927 4.65269 127.927 4.6524 127.927 4.65205C127.927 4.65201 127.927 4.65222 126.086 3.87081Z" fill="white"/>
</svg>
