<svg width="156" height="156" viewBox="0 0 156 156" fill="none" xmlns="http://www.w3.org/2000/svg">
<g clip-path="url(#clip0_1_816)">
<mask id="mask0_1_816" style="mask-type:luminance" maskUnits="userSpaceOnUse" x="0" y="0" width="156" height="156">
<path d="M156 0H0V156H156V0Z" fill="white"/>
</mask>
<g mask="url(#mask0_1_816)">
<path fill-rule="evenodd" clip-rule="evenodd" d="M93.6 11.1428C93.6 4.98882 88.6111 0 82.4569 0H73.5428C67.3888 0 62.4 4.98883 62.4 11.1428V13.437C62.4 23.3642 50.3976 28.3358 43.378 21.3162L41.7557 19.694C37.4042 15.3424 30.3489 15.3424 25.9973 19.694L19.694 25.9973C15.3424 30.3489 15.3424 37.4041 19.694 41.7557L21.3162 43.378C28.3358 50.3976 23.3643 62.4 13.4371 62.4H11.1428C4.98882 62.4 0 67.3888 0 73.5428V82.4569C0 88.6111 4.98882 93.6 11.1428 93.6H13.437C23.3643 93.6 28.3358 105.603 21.3162 112.622L19.694 114.244C15.3424 118.596 15.3424 125.651 19.694 130.003L25.9973 136.306C30.3489 140.657 37.4042 140.657 41.7557 136.306L43.378 134.683C50.3975 127.664 62.4 132.636 62.4 142.563V144.857C62.4 151.011 67.3888 156 73.5428 156H82.4569C88.6111 156 93.6 151.011 93.6 144.857V142.563C93.6 132.636 105.603 127.664 112.622 134.683L114.244 136.306C118.596 140.657 125.651 140.657 130.003 136.306L136.306 130.003C140.657 125.651 140.657 118.596 136.306 114.244L134.684 112.622C127.664 105.603 132.636 93.6 142.563 93.6H144.857C151.011 93.6 156 88.6111 156 82.4569V73.5428C156 67.3888 151.011 62.4 144.857 62.4H142.563C132.636 62.4 127.664 50.3976 134.683 43.378L136.306 41.7557C140.657 37.4041 140.657 30.3489 136.306 25.9973L130.003 19.694C125.651 15.3424 118.596 15.3424 114.244 19.694L112.622 21.3162C105.603 28.3358 93.6 23.3642 93.6 13.437V11.1428Z" fill="url(#paint0_linear_1_816)"/>
</g>
</g>
<defs>
<linearGradient id="paint0_linear_1_816" x1="10.92" y1="20.28" x2="139.62" y2="140.01" gradientUnits="userSpaceOnUse">
<stop stop-color="#E9B8FF"/>
<stop offset="1" stop-color="#F9ECFF"/>
</linearGradient>
<clipPath id="clip0_1_816">
<rect width="156" height="156" fill="white"/>
</clipPath>
</defs>
</svg>
