<svg viewBox="0 0 20 20" xmlns="http://www.w3.org/2000/svg" fill="currentColor">
  <path d="M10,0 C4.477,0 0,4.59 0,10.253 C0,14.782 2.862,18.624 6.833,19.981 C7.34,20.082 7.52,19.762 7.52,19.489 C7.52,19.151 7.508,18.047 7.508,16.675 C7.508,16.675 4.96,17.237 4.392,15.52 C4.392,15.52 3.944,14.373 3.292,14.073 C3.292,14.073 2.374,13.436 3.354,13.449 C3.354,13.449 4.352,13.528 4.901,14.488 C5.775,16.055 7.222,15.602 7.542,15.34 C7.632,14.677 7.891,14.225 8.177,13.969 C5.956,13.71 3.621,13.523 3.621,9.594 C3.621,8.474 4.009,7.56 4.651,6.842 C4.547,6.583 4.204,5.54 4.749,4.128 C4.749,4.128 5.587,3.853 7.496,5.179 C8.294,4.952 9.15,4.838 10,4.834 C10.85,4.838 11.706,4.952 12.505,5.179 C14.414,3.853 15.252,4.128 15.252,4.128 C15.797,5.54 15.454,6.583 15.35,6.842 C15.99,7.56 16.38,8.474 16.38,9.594 C16.38,13.528 14.044,13.712 11.823,13.969 C12.182,14.287 12.492,14.895 12.492,15.851 C12.492,17.223 12.48,18.965 12.48,19.303 C12.48,19.576 12.66,19.896 13.167,19.795 C17.138,18.44 20,14.596 20,10.066 C20,4.59 15.523,0 10,0"/>
</svg>
